<svg id="Layer_1" data-name="Layer 1" xmlns="http://www.w3.org/2000/svg" viewBox="0 0 643.75 400"><defs><style>.cls-1{fill:#e0e0e0;}.cls-2{fill:#f0f0f0;}.cls-3{fill:#263238;}.cls-4{fill:#4356ff;}.cls-5{opacity:0.2;}.cls-6{fill:#fff;}.cls-7{fill:#e6e6e6;}.cls-8{opacity:0.1;}.cls-9{fill:#455a64;}.cls-10{fill:#e5baab;}.cls-11{fill:#d78776;}</style></defs><g id="Character_1" data-name="Character 1"><polygon class="cls-1" points="555.3 223.64 561.63 234.62 567.94 245.61 574.3 234.65 580.66 223.68 571.89 223.67 571.99 181.29 564.16 181.28 564.06 223.65 555.3 223.64"/><polygon class="cls-1" points="577.8 194.54 581.56 201.09 585.33 207.66 589.13 201.12 592.92 194.57 587.69 194.56 587.75 169.3 583.08 169.29 583.03 194.55 577.8 194.54"/><polygon class="cls-1" points="144.43 23.11 138.12 12.12 131.8 1.13 125.44 12.1 119.08 23.07 127.84 23.08 127.76 65.45 135.59 65.46 135.67 23.1 144.43 23.11"/><polygon class="cls-1" points="119.48 50.98 115.66 44.33 111.84 37.69 108 44.32 104.15 50.95 109.44 50.96 109.4 76.57 114.13 76.58 114.18 50.97 119.48 50.98"/><path class="cls-2" d="M581.68,364.33c-15.7-10.24-19.63-29.87-19.46-47.58,0-3-.37-6.07,1-8.7s4.64-4.48,7.32-3.3c2.25,1,3.29,3.51,4.59,5.59a17.37,17.37,0,0,0,7.23,6.46c1.93.93,4.31,1.46,6.16.4,2.55-1.47,2.77-5,2.68-7.94l-.47-16.44a27.13,27.13,0,0,1,.68-8.75c.86-2.81,2.84-5.45,5.65-6.28s6.36.68,7,3.55a24.73,24.73,0,0,1,.18,3.65,3.08,3.08,0,0,0,1.91,2.87c1.19.32,2.36-.54,3.23-1.42,3-3.05,5-6.92,6.85-10.77s3.66-7.79,6.37-11.09,6.51-6,10.77-6.28,8.86,2.09,10,6.28-1.16,8.37-3.74,11.8a65.9,65.9,0,0,1-13.54,13.35,5.51,5.51,0,0,0-2.25,2.52c-.59,2,1.33,3.87,3.31,4.48,2.24.67,4.65.38,7,.59s4.88,1.17,5.81,3.32c1.29,3-1.18,6.18-3.63,8.31a57.06,57.06,0,0,1-16.63,10c-2.17.85-4.46,1.59-6.19,3.14s-2.73,4.24-1.62,6.28,3.88,2.65,6.17,2.17,4.31-1.75,6.47-2.62c4.06-1.62,9.35-1.47,12.06,2a9.17,9.17,0,0,1,1.2,8.2,21.24,21.24,0,0,1-4.33,7.38A57.25,57.25,0,0,1,609.42,363c-9.42,3.49-18.2,4.58-27.72,1.39"/><path class="cls-1" d="M639,260.57a2.47,2.47,0,0,1-.28.28l-.87.8c-.76.7-1.89,1.72-3.3,3.14a108.63,108.63,0,0,0-11.1,12.38c-2.15,2.78-4.38,5.92-6.72,9.33s-4.78,7.09-7.23,11a133.7,133.7,0,0,0-7,12.66c-1.1,2.29-2.09,4.66-3,7.09s-2,4.88-3,7.33a264.88,264.88,0,0,0-9.87,28.62,129.43,129.43,0,0,0-4.36,24.25,92.15,92.15,0,0,0,.15,16.61c.19,2,.39,3.48.56,4.49l.17,1.18a2.54,2.54,0,0,1,0,.39,59.73,59.73,0,0,1-.95-6,91,91,0,0,1-.29-16.67,129,129,0,0,1,4.27-24.35A264.38,264.38,0,0,1,596,324.52l3-7.32c1-2.42,2-4.82,3.06-7.1a132.75,132.75,0,0,1,7.1-12.78c2.46-3.95,4.92-7.62,7.27-11s4.59-6.54,6.77-9.31a104.8,104.8,0,0,1,11.22-12.32c1.44-1.35,2.58-2.36,3.37-3l.9-.76Z"/><path class="cls-1" d="M602.15,310a7.87,7.87,0,0,1-.31-1.25c-.16-.82-.37-2-.61-3.45-.5-2.92-1.05-7-1.61-11.44s-1.18-8.51-1.73-11.41c-.26-1.44-.49-2.62-.67-3.43a6.14,6.14,0,0,1-.22-1.27,8.84,8.84,0,0,1,.37,1.24c.23.79.51,1.95.82,3.4.63,2.9,1.29,6.94,1.86,11.42s1.05,8.43,1.47,11.44c.2,1.41.35,2.57.48,3.47A6.88,6.88,0,0,1,602.15,310Z"/><path class="cls-1" d="M640.27,302l-.39.07-1.14.13c-1,.09-2.39.24-4.18.48-3.51.45-8.32,1.25-13.61,2.36s-10,2.33-13.38,3.32c-1.7.49-3.07.9-4,1.2l-1,.33c-.25.08-.38.11-.38.09a.88.88,0,0,1,.35-.17l1-.41c.93-.35,2.28-.82,4-1.34,3.38-1,8.1-2.33,13.39-3.46a136.63,136.63,0,0,1,13.6-2.23c1.76-.2,3.2-.3,4.19-.35h1.14C640.14,302,640.27,302,640.27,302Z"/><path class="cls-1" d="M586.53,352.41a2.59,2.59,0,0,1-.26-.46l-.68-1.36c-.59-1.17-1.39-2.9-2.36-5-2-4.3-4.45-10.3-7.13-17s-5.14-12.68-7-17l-2.23-5.11c-.25-.57-.45-1.05-.61-1.39a3.3,3.3,0,0,1-.19-.49,3,3,0,0,1,.27.46l.68,1.35c.59,1.18,1.4,2.9,2.37,5,2,4.29,4.45,10.3,7.13,17s5.14,12.68,7,17l2.24,5.11.6,1.38A2.3,2.3,0,0,1,586.53,352.41Z"/><path class="cls-1" d="M637,335a3.89,3.89,0,0,1-.51.21l-1.46.51-5.41,1.85c-4.58,1.58-10.85,3.83-17.79,6.28s-13.24,4.72-17.79,6.22c-2.3.75-4.19,1.34-5.46,1.72l-1.49.43a3.53,3.53,0,0,1-.54.13,2.28,2.28,0,0,1,.51-.21l1.47-.51,5.41-1.87c4.56-1.57,10.85-3.82,17.79-6.33s13.24-4.71,17.79-6.2c2.31-.76,4.19-1.34,5.47-1.73l1.49-.43A1.81,1.81,0,0,1,637,335Z"/><path class="cls-3" d="M638.7,398.59c0,.15-141.91.28-316.93.28s-316.95-.13-316.95-.28,141.88-.27,317-.27S638.7,398.44,638.7,398.59Z"/><path class="cls-4" d="M70,366.11a19.66,19.66,0,0,0-12.16-1.49c-2.2.37-4.5,1.05-6,2.68s-1.79,4.58-.06,6a5.74,5.74,0,0,0,3.78,1c3.22,0,6.78-.6,9.35,1.33,1.47,1.1,2.44,2.93,4.19,3.48a4.2,4.2,0,0,0,4.56-2,7.17,7.17,0,0,0,.52-5.24A8,8,0,0,0,70,366.11Z"/><path class="cls-4" d="M78.5,349.75c-2.26,3.24-6.66,2.16-8.7.19s-2.9-4.82-3.68-7.55c-1.79-6.23-3.6-12.76-2.26-19.09a10.51,10.51,0,0,1,2.43-5.24,5.53,5.53,0,0,1,5.24-1.74c2.2.57,3.59,2.75,4.58,4.81a45.44,45.44,0,0,1,4.5,19.54c0,3.14-.37,6.45-2.09,9"/><g class="cls-5"><path d="M78.5,349.75c-2.26,3.24-6.66,2.16-8.7.19s-2.9-4.82-3.68-7.55c-1.79-6.23-3.6-12.76-2.26-19.09a10.51,10.51,0,0,1,2.43-5.24,5.53,5.53,0,0,1,5.24-1.74c2.2.57,3.59,2.75,4.58,4.81a45.44,45.44,0,0,1,4.5,19.54c0,3.14-.37,6.45-2.09,9"/></g><path class="cls-4" d="M84.7,354.39a11.8,11.8,0,0,1-1.82-10.82,20.74,20.74,0,0,1,6.41-9.28,34.53,34.53,0,0,1,11.51-6.78,12.27,12.27,0,0,1,5.16-.88,5.44,5.44,0,0,1,4.32,2.62c1.21,2.3,0,5.1-1.2,7.38a86.65,86.65,0,0,1-7.54,11.51c-2.25,2.91-4.84,5.79-8.28,7.1s-7,1.16-8.84-1.23"/><path class="cls-3" d="M78.64,398.47a8,8,0,0,1-.2-1.47c-.1-1-.23-2.4-.38-4a56.19,56.19,0,0,0-.9-5.88,46.38,46.38,0,0,0-2.1-6.92,25.07,25.07,0,0,0-3.54-6.28,13.41,13.41,0,0,0-4.47-3.73A12.87,12.87,0,0,0,63.27,369a7.24,7.24,0,0,1-1.46-.21,6.19,6.19,0,0,1,1.49,0,11.24,11.24,0,0,1,3.93,1.05A13.26,13.26,0,0,1,72,373.6,25.17,25.17,0,0,1,75.62,380a43.12,43.12,0,0,1,2.09,7,49.84,49.84,0,0,1,.78,6c.13,1.69.17,3.07.19,4A6.31,6.31,0,0,1,78.64,398.47Z"/><path class="cls-3" d="M78.37,395.39a3.86,3.86,0,0,1,0-.68v-1.95c0-1.69,0-4.13-.08-7.15-.16-6-.67-14.38-1.68-23.54S74.26,344.66,73,338.73c-.29-1.47-.57-2.81-.85-4s-.49-2.18-.7-3-.34-1.39-.46-1.89a3,3,0,0,1-.11-.67,2.87,2.87,0,0,1,.23.64l.56,1.86c.26.82.52,1.81.81,3s.63,2.49.94,4A221.68,221.68,0,0,1,77.21,362a228.26,228.26,0,0,1,1.5,23.6c0,3,0,5.48-.11,7.16,0,.8-.08,1.44-.11,1.95A2.62,2.62,0,0,1,78.37,395.39Z"/><path class="cls-3" d="M78.33,379.28a14,14,0,0,1,0-2,54.46,54.46,0,0,1,.62-5.5,71.05,71.05,0,0,1,1.79-8,69.59,69.59,0,0,1,3.36-9.5A50.23,50.23,0,0,1,94,338.85a23.75,23.75,0,0,1,2.32-2.17c.35-.29.67-.6,1-.84l.9-.61a11.63,11.63,0,0,1,1.72-1.05,62.22,62.22,0,0,0-5.62,5,53.41,53.41,0,0,0-9.62,15.3,77.1,77.1,0,0,0-3.37,9.42c-.88,2.95-1.46,5.66-1.91,8s-.66,4.18-.81,5.45A11.78,11.78,0,0,1,78.33,379.28Z"/><rect class="cls-6" x="161.12" y="38.86" width="321.67" height="250.3"/><path class="cls-3" d="M482.79,289.16c0-1.87-.09-99.21-.23-250.3l.23.22H161.15l.27-.27v250.3l-.24-.25,321.67.25-321.67.24h-.24V38.54H483.1v.23C482.93,190,482.79,287.29,482.79,289.16Z"/><path class="cls-3" d="M249.55,268.13c-.16,0-.27-27.21-.27-60.76s.11-60.77.27-60.77.27,27.21.27,60.77S249.72,268.13,249.55,268.13Z"/><path class="cls-3" d="M389.17,268.13c-.16,0-.27-27.21-.27-60.76s.11-60.77.27-60.77.27,27.21.27,60.77S389.31,268.13,389.17,268.13Z"/><path class="cls-3" d="M297.22,268.13c-.15,0-.27-34.77-.27-77.67s.12-77.69.27-77.69.27,34.77.27,77.69S297.38,268.13,297.22,268.13Z"/><path class="cls-3" d="M200.63,268.13c-.16,0-.28-34.77-.28-77.67s.12-77.69.28-77.69.27,34.77.27,77.69S200.77,268.13,200.63,268.13Z"/><path class="cls-3" d="M444,268.13c-.14,0-.27-34.77-.27-77.67s.13-77.69.27-77.69.28,34.77.28,77.69S444.11,268.13,444,268.13Z"/><path class="cls-3" d="M339,268.13c-.16,0-.27-40.15-.27-89.68s.11-89.71.27-89.71.27,40.15.27,89.71S339.17,268.13,339,268.13Z"/><path class="cls-3" d="M250.71,146.6a1.14,1.14,0,1,1-1.14-1.14h0A1.14,1.14,0,0,1,250.71,146.6Z"/><circle class="cls-3" cx="297.22" cy="112.77" r="1.14"/><path class="cls-3" d="M297.22,116.76a4,4,0,1,1,4-4A4,4,0,0,1,297.22,116.76Zm0-7.73a3.74,3.74,0,1,0,3.74,3.74A3.74,3.74,0,0,0,297.22,109Z"/><circle class="cls-3" cx="339.02" cy="88.74" r="1.14"/><circle class="cls-3" cx="389.17" cy="147.74" r="1.14"/><circle class="cls-3" cx="443.99" cy="112.77" r="1.14"/><path class="cls-3" d="M201.76,113.91a1.15,1.15,0,1,1-1.14-1.14h0a1.13,1.13,0,0,1,1.13,1.13Z"/><path class="cls-4" d="M454.75,167.75a3.94,3.94,0,0,1-.9.29,21.24,21.24,0,0,0-2.58.89,25.11,25.11,0,0,0-8.31,6.28c-3.14,3.37-6.23,8.06-10.13,13.34a65.51,65.51,0,0,1-6.89,8,38.67,38.67,0,0,1-4.47,3.7,31.94,31.94,0,0,1-5.39,2.94,30.19,30.19,0,0,1-12.89,2.16,33.89,33.89,0,0,1-6.94-.87,18,18,0,0,1-6.72-2.95,21.59,21.59,0,0,1-5.23-5.47c-1.44-2.09-2.74-4.31-4-6.56-2.51-4.53-5.1-9.1-8.06-13.68s-5.6-9.52-8.61-14.34a67.77,67.77,0,0,0-10.54-13.6A30.55,30.55,0,0,0,346,142.8a23.58,23.58,0,0,0-8.37-2.46,29.53,29.53,0,0,0-17.43,3.73A44.05,44.05,0,0,0,307,156.45a137.62,137.62,0,0,0-9.49,15.25,153.6,153.6,0,0,1-9.19,15,72.53,72.53,0,0,1-11.12,12.67,38,38,0,0,1-3.23,2.58,35.19,35.19,0,0,1-3.42,2.23,29.61,29.61,0,0,1-7.41,3.05,26.67,26.67,0,0,1-3.87.73,14,14,0,0,1-2,.1h-1.93a29.28,29.28,0,0,1-7.42-1.38,50.43,50.43,0,0,1-12.56-6.55c-3.73-2.57-7.13-5.23-10.46-7.62a55,55,0,0,0-9.94-6,33.34,33.34,0,0,0-9.89-2.81,24.37,24.37,0,0,0-8.88.57,16.07,16.07,0,0,0-1.93.62,12.7,12.7,0,0,0-1.8.71,24.07,24.07,0,0,0-3.14,1.74,34.3,34.3,0,0,0-4.72,3.78l-1.64,1.8a15.07,15.07,0,0,0-1.32,1.54L180,196.57a4.28,4.28,0,0,1-.62.72,4.12,4.12,0,0,1,.48-.81l1.54-2.29a15.12,15.12,0,0,1,1.27-1.6l1.61-1.88a32,32,0,0,1,4.72-4,24.16,24.16,0,0,1,3.14-1.85,12.17,12.17,0,0,1,1.83-.76,14.91,14.91,0,0,1,2-.68,25,25,0,0,1,9.19-.73,33.94,33.94,0,0,1,10.21,2.77,56.46,56.46,0,0,1,10.19,6c3.37,2.38,6.79,5,10.47,7.51a49.05,49.05,0,0,0,12.24,6.28,28.39,28.39,0,0,0,7.08,1.27h1.83a11.25,11.25,0,0,0,1.83-.12,23.88,23.88,0,0,0,3.66-.7,33.33,33.33,0,0,0,13.48-7.53A71.82,71.82,0,0,0,287,185.78,154.45,154.45,0,0,0,296,171a136.2,136.2,0,0,1,9.57-15.43,45.51,45.51,0,0,1,13.78-12.83,31.3,31.3,0,0,1,18.37-3.93,25.19,25.19,0,0,1,9,2.65,31.64,31.64,0,0,1,7.44,5.34,70,70,0,0,1,10.77,13.93c3,4.86,5.69,9.77,8.55,14.37s5.58,9.26,8,13.77,5,8.93,8.78,11.64a16.74,16.74,0,0,0,6.28,2.78,34.06,34.06,0,0,0,6.66.88,29.42,29.42,0,0,0,12.42-2,30.47,30.47,0,0,0,5.23-2.78,37.14,37.14,0,0,0,4.37-3.54,63.77,63.77,0,0,0,6.88-7.8c4-5.23,7.17-9.85,10.4-13.2a24.07,24.07,0,0,1,8.65-6.18,14.37,14.37,0,0,1,2.66-.74A5.58,5.58,0,0,1,454.75,167.75Z"/><rect class="cls-3" x="199.49" y="66.95" width="56.08" height="3.12"/><rect class="cls-3" x="199.49" y="74.25" width="27.71" height="3.12"/><path class="cls-3" d="M165.45,18.44H478.07a4.72,4.72,0,0,1,4.72,4.72h0v15.7H160.73V23.16A4.73,4.73,0,0,1,165.45,18.44Z"/><path class="cls-6" d="M177.42,29a2.2,2.2,0,1,1-2.19-2.19A2.19,2.19,0,0,1,177.42,29Z"/><path class="cls-6" d="M187,29a2.2,2.2,0,1,1-2.2-2.19A2.19,2.19,0,0,1,187,29Z"/><path class="cls-6" d="M196.61,29a2.2,2.2,0,1,1-2.2-2.19,2.2,2.2,0,0,1,2.2,2.19Z"/><rect class="cls-7" x="37.07" y="186.15" width="132.08" height="37.04" rx="3.38"/><path class="cls-6" d="M64.91,210.84a8,8,0,1,1-1.24-11.32h0a8.05,8.05,0,0,1,1.26,11.3Z"/><path class="cls-3" d="M63.16,203.07a38.17,38.17,0,0,1-4.36,4.63l-1,1-.18.19-.19-.19a25.54,25.54,0,0,1-3.26-3.63,25,25,0,0,1,3.63,3.26h-.36l1-1.05A38.08,38.08,0,0,1,63.16,203.07Z"/><path class="cls-3" d="M156.26,202c0,.15-16.74.27-37.49.27s-37.5-.12-37.5-.27,16.74-.27,37.5-.27S156.26,201.79,156.26,202Z"/><path class="cls-3" d="M125.51,209.28c0,.14-9.72.27-21.69.27s-21.71-.13-21.71-.27,9.7-.27,21.67-.27S125.51,209.12,125.51,209.28Z"/><rect class="cls-1" x="76.06" y="96.92" width="130.22" height="54.07" rx="2.74"/><path class="cls-4" d="M103.11,114A6.07,6.07,0,1,1,97,107.94a6.07,6.07,0,0,1,6.07,6.07Z"/><rect class="cls-4" x="109.18" y="109.82" width="42.3" height="2.34"/><rect class="cls-6" x="109.18" y="115.15" width="82.28" height="2.34"/><path class="cls-4" d="M103.11,132.67A6.07,6.07,0,1,1,97,126.6a6.07,6.07,0,0,1,6.07,6.07Z"/><rect class="cls-4" x="109.18" y="128.49" width="21.6" height="2.34"/><rect class="cls-6" x="109.18" y="133.81" width="82.28" height="2.34"/><rect class="cls-1" x="99.01" y="239.13" width="168.01" height="71.41" rx="4.14"/><path class="cls-4" d="M129.74,273.64l-.09-14.49a18.52,18.52,0,0,0-12,4.67,17.12,17.12,0,0,0-5.76,15c.08.69.19,1.39.34,2.09v0h0L129.72,277Z"/><path class="cls-4" d="M147.73,269.18a17.18,17.18,0,0,0-14.08-9.86l-.56-.05H131.6l.09,14.48v3.41l17.48,3.74h0a16.91,16.91,0,0,0,.39-3.76A18.78,18.78,0,0,0,147.73,269.18Z"/><g class="cls-5"><path d="M147.73,269.18a17.18,17.18,0,0,0-14.08-9.86l-.56-.05H131.6l.09,14.48v3.41l17.48,3.74h0a16.91,16.91,0,0,0,.39-3.76A18.78,18.78,0,0,0,147.73,269.18Z"/></g><path class="cls-4" d="M130.68,278.81l-17.45,3.93a17.89,17.89,0,0,0,34.93-.11l-17.45-3.81"/><g class="cls-8"><path d="M130.68,278.81l-17.45,3.93a17.89,17.89,0,0,0,34.93-.11l-17.45-3.81"/></g><rect class="cls-6" x="161.28" y="263.49" width="88.67" height="4.02"/><rect class="cls-6" x="161.28" y="274.08" width="88.67" height="4.02"/><rect class="cls-6" x="161.28" y="285.79" width="47.93" height="4.02"/><rect class="cls-7" x="294.84" y="188.49" width="175.18" height="168.67" rx="8.8"/><rect class="cls-3" x="307.09" y="304.04" width="5.75" height="1.65"/><rect class="cls-3" x="320.1" y="312.9" width="7.36" height="1.65"/><rect class="cls-3" x="345.7" y="312.9" width="7.36" height="1.65"/><rect class="cls-3" x="371.28" y="312.9" width="7.36" height="1.65"/><rect class="cls-3" x="396.88" y="312.9" width="7.36" height="1.65"/><rect class="cls-3" x="422.48" y="312.9" width="7.36" height="1.65"/><rect class="cls-3" x="448.08" y="312.9" width="7.36" height="1.65"/><rect class="cls-3" x="307.09" y="281.92" width="5.75" height="1.65"/><rect class="cls-3" x="307.09" y="240.27" width="5.75" height="1.65"/><rect class="cls-3" x="307.09" y="219.35" width="5.75" height="1.65"/><rect class="cls-3" x="307.38" y="261.09" width="5.75" height="1.65"/><path class="cls-3" d="M455.23,305.7H452.8l-7,.06-25.59.08-84.41.08H315.57v-.26c0-28.25.07-53.07.09-70.87,0-8.88.06-16,.08-20.93v-7.09a4.17,4.17,0,0,1,0-.5,4.17,4.17,0,0,1,0,.5v7.09c0,4.93.06,12,.09,20.93,0,17.79.05,42.65.09,70.87l-.27-.27h20l84.41.07,25.59.09,7,.05h1.81Z"/><path class="cls-3" d="M456.84,261.92c0,.15-30.35.27-67.71.27s-67.73-.12-67.73-.27,30.34-.27,67.73-.27S456.84,261.77,456.84,261.92Z"/><path class="cls-3" d="M456.84,241.13c0,.15-30.35.28-67.71.28s-67.73-.13-67.73-.28,30.34-.27,67.73-.27S456.84,241,456.84,241.13Z"/><path class="cls-3" d="M456.84,220.2c0,.15-30.35.28-67.71.28s-67.73-.13-67.73-.28,30.34-.27,67.73-.27S456.84,220,456.84,220.2Z"/><path class="cls-3" d="M456.84,282.74c0,.15-30.35.28-67.71.28s-67.73-.13-67.73-.28,30.34-.27,67.73-.27S456.84,282.6,456.84,282.74Z"/><path class="cls-4" d="M322.81,301.21V282.74l11.51-17.87,7.82,6,16-24.92,9.42,6.66,13.16-23,10.7,8.71,16-30.49,17.28,34.08,14-17,16.45-4.71v81Z"/><path class="cls-3" d="M456.84,213.61h-4.48l-12.62.06h.11l-13.52,17.68-.07.08h-.11l-33.86,0,.23-.12-14.25,23.73-14,23.24-.2.33-.24-.31-18.33-25.23h.36L329.14,279.2c-2,3.14-3.58,5.52-4.67,7.2-.52.81-.94,1.43-1.23,1.88s-.44.63-.44.63.12-.23.38-.66.67-1.1,1.19-1.93l4.56-7.27,16.58-26.16.16-.28.2.27c5.49,7.5,11.69,16,18.41,25.18h-.44l14-23.25,14.27-23.69.07-.13h34l-.16.09,13.6-17.61v-.06h.08l12.62.07h4.2Z"/><path class="cls-3" d="M351.24,258.92a1.3,1.3,0,1,1-1.34-1.25h0a1.26,1.26,0,0,1,1.3,1.23Z"/><path class="cls-3" d="M390.31,236.71a1.3,1.3,0,1,1-1.34-1.26h0a1.28,1.28,0,0,1,1.3,1.26Z"/><path class="cls-3" d="M420.68,231.25a1.31,1.31,0,0,1-2.62.11,1.32,1.32,0,0,1,1.26-1.36h.06a1.27,1.27,0,0,1,1.3,1.25Z"/><ellipse class="cls-6" cx="328.5" cy="335.04" rx="8.4" ry="8.09"/><rect class="cls-6" x="349.37" y="329.62" width="98.71" height="3.02"/><rect class="cls-6" x="349.37" y="337.18" width="40.98" height="3.02"/><rect class="cls-7" x="413.64" y="57.49" width="116.31" height="96.47" rx="5.17"/><rect class="cls-4" x="433.94" y="96.12" width="6.27" height="47.33"/><rect class="cls-4" x="462.44" y="92.28" width="6.27" height="51.18"/><rect class="cls-4" x="491.95" y="85.78" width="6.27" height="57.67"/><rect class="cls-4" x="478.09" y="120.4" width="6.27" height="23.04"/><g class="cls-5"><rect x="478.09" y="120.4" width="6.27" height="23.04"/></g><rect class="cls-4" x="441.24" y="91.04" width="6.27" height="52.41"/><g class="cls-8"><rect x="441.24" y="91.04" width="6.27" height="52.41"/></g><rect class="cls-4" x="470.25" y="80.06" width="6.27" height="63.39"/><g class="cls-8"><rect x="470.25" y="80.06" width="6.27" height="63.39"/></g><rect class="cls-4" x="508.13" y="80.06" width="6.27" height="63.39"/><g class="cls-5"><rect x="508.13" y="80.06" width="6.27" height="63.39"/></g><rect class="cls-4" x="499.94" y="67.55" width="6.27" height="75.9"/><g class="cls-8"><rect x="499.94" y="67.55" width="6.27" height="75.9"/></g><rect class="cls-4" x="448.91" y="110.19" width="6.27" height="33.26"/><g class="cls-5"><rect x="448.91" y="110.19" width="6.27" height="33.26"/></g><path class="cls-3" d="M523.36,146.32c0,.16-22.37.27-50,.27s-50-.11-50-.27,22.37-.27,50-.27S523.36,146.17,523.36,146.32Z"/><rect class="cls-3" x="420.52" y="135.03" width="3.83" height="1.27"/><rect class="cls-3" x="420.52" y="118.19" width="3.83" height="1.27"/><rect class="cls-3" x="420.52" y="86.48" width="3.83" height="1.27"/><rect class="cls-3" x="420.52" y="70.55" width="3.83" height="1.27"/><rect class="cls-3" x="420.72" y="102.33" width="3.83" height="1.27"/><rect class="cls-4" x="279.7" y="49.65" width="119.3" height="33.45" rx="3.38"/><path class="cls-6" d="M304.85,72a7.27,7.27,0,1,1-1.12-10.22h0A7.32,7.32,0,0,1,304.85,72Z"/><path class="cls-3" d="M299.17,74.74a7.33,7.33,0,0,1-.79-14.55,5.47,5.47,0,0,1,.81,0,7.33,7.33,0,0,1,5.68,11.86h0a7.29,7.29,0,0,1-4.9,2.69C299.7,74.75,299.44,74.75,299.17,74.74Zm0-14.54a5.48,5.48,0,0,0-.81,0,7.24,7.24,0,1,0,6.45,11.73h0a7.24,7.24,0,0,0-5.64-11.77Z"/><path class="cls-4" d="M303.26,64.93a29.89,29.89,0,0,1-3.92,4.19l-.95.92-.2.19L298,70a20.78,20.78,0,0,1-2.92-3.3,21.75,21.75,0,0,1,3.29,2.92H298l1-.94A31.53,31.53,0,0,1,303.26,64.93Z"/><path class="cls-6" d="M387.36,63.93c0,.14-15.17.27-33.87.27s-33.87-.13-33.87-.27,15.16-.28,33.87-.28S387.36,63.77,387.36,63.93Z"/><path class="cls-6" d="M359.57,70.55c0,.15-8.76.27-19.58.27s-19.58-.12-19.58-.27,8.77-.27,19.58-.27S359.57,70.38,359.57,70.55Z"/><path class="cls-3" d="M582,113.29s-.14.18-.44.5-.72.82-1.33,1.42a25.34,25.34,0,0,1-6.07,4.18,19.51,19.51,0,0,1-2.33,1l-1.29.46-1.38.36a25.25,25.25,0,0,1-3,.57c-.53.06-1,.08-1.6.14a15.51,15.51,0,0,1-1.67,0,25.1,25.1,0,0,1-14.3-4.6h.17l-12.46,2.47-.7.14.47-.54,6.84-7.89v.33a27.87,27.87,0,0,1-3.06-5.46,27.24,27.24,0,0,1-1.66-6.27,25.14,25.14,0,0,1,42.42-21.27,24.86,24.86,0,0,1,5.13,28.86c-.24.48-.48,1-.7,1.37s-.51.79-.73,1.15a13.14,13.14,0,0,1-1.22,1.73l-.83,1.05a2.28,2.28,0,0,1-.29.33,1.78,1.78,0,0,1,.25-.36L583,112a14.15,14.15,0,0,0,1.17-1.76c.21-.35.47-.72.7-1.15s.43-.89.67-1.37a24.73,24.73,0,0,0-5.25-28.4,24.35,24.35,0,0,0-5.68-4.09,23.7,23.7,0,0,0-7-2.4,24.65,24.65,0,0,0-28.89,27.41,26.72,26.72,0,0,0,1.61,6.14,27.51,27.51,0,0,0,3,5.35l.12.17-.13.15-6.86,7.73-.23-.41L548.68,117h.17a24.87,24.87,0,0,0,14,4.61,11.09,11.09,0,0,0,1.63,0,7.19,7.19,0,0,0,1.6-.12,27.06,27.06,0,0,0,2.94-.53l1.37-.35,1.27-.45a16.19,16.19,0,0,0,2.32-1,26,26,0,0,0,6.09-4.1c.63-.58,1-1,1.38-1.36A4.09,4.09,0,0,1,582,113.29Z"/><polygon class="cls-3" points="563.49 91.71 559.29 90.32 555.09 88.93 555.99 93.26 556.87 97.59 559.17 95.56 569 106.61 571.04 104.8 561.21 93.74 563.49 91.71"/><path class="cls-4" d="M543.11,383.23l-6.77-6.8L549,363.65l10,9.86-.73.84c-3.3,3.72-17,18.68-20.09,20.32C534.79,396.51,543.11,383.23,543.11,383.23Z"/><path class="cls-3" d="M554.33,378a6.29,6.29,0,0,1-1.11-4.33,6.06,6.06,0,0,1,2-3.91l3.58,3.54Z"/><path class="cls-3" d="M539.24,389.91s-2.68,4.89-1.58,5S553.21,380.5,559,373.51l-.3-.26L542,390.41S540,389.2,539.24,389.91Z"/><path class="cls-9" d="M558.9,373c0,.08-.12.16-.18.24s-.38.42-.59.67l-2.21,2.41c-1.87,2-4.49,4.81-7.46,7.81s-5.7,5.65-7.71,7.55l-2.36,2.25-.67.59a1.16,1.16,0,0,1-.24.2l.21-.23.64-.63,2.35-2.27c2-1.92,4.7-4.59,7.68-7.6s5.59-5.74,7.5-7.75l2.25-2.38.62-.63A1.06,1.06,0,0,1,558.9,373Z"/><path class="cls-9" d="M542.2,390.6a7,7,0,0,0-1.54-.66,7.77,7.77,0,0,0-1.67-.09,2.46,2.46,0,0,1,1.73-.13A2.4,2.4,0,0,1,542.2,390.6Z"/><path class="cls-9" d="M544,384.94a3.78,3.78,0,0,1-1.72-.38c0-.06.4,0,.89.08S544,384.87,544,384.94Z"/><path class="cls-9" d="M544.5,383.36c0,.06-.33.12-.74.15a1.51,1.51,0,0,1-.76-.06c0-.06.33-.14.74-.16S544.5,383.29,544.5,383.36Z"/><path class="cls-9" d="M544,381.5a2.72,2.72,0,0,1-.58.76c-.35.36-.69.65-.73.6s.21-.38.58-.75A2.38,2.38,0,0,1,544,381.5Z"/><path class="cls-9" d="M543.32,380.45a1.79,1.79,0,0,1-.52.95,1.92,1.92,0,0,1-.87.67,10.06,10.06,0,0,1,.7-.81C543,380.82,543.26,380.42,543.32,380.45Z"/><path class="cls-9" d="M542.48,384.27a3.46,3.46,0,0,1-.81.81,6.5,6.5,0,0,1-1,.68,2.9,2.9,0,0,1-.7.3.69.69,0,0,1-.45,0,.48.48,0,0,1-.21-.45,2.09,2.09,0,0,1,2.29-1.44,2.13,2.13,0,0,1,.81.29c.18.1.25.18.24.19a2.92,2.92,0,0,0-1.05-.32,2.09,2.09,0,0,0-1.15.25,1.83,1.83,0,0,0-.9,1.05c0,.22.17.32.4.26a2.91,2.91,0,0,0,.59-.34,8.39,8.39,0,0,0,1-.62A10.42,10.42,0,0,1,542.48,384.27Z"/><path class="cls-9" d="M542.32,384.51a1.24,1.24,0,0,1-.67-.47,1.93,1.93,0,0,1-.38-.82,1.18,1.18,0,0,1,.26-1.05.47.47,0,0,1,.63.13,1.34,1.34,0,0,1,.23.5,4.34,4.34,0,0,1,.12.88,2,2,0,0,1-.14.8v-.8a3.93,3.93,0,0,0-.16-.83c-.06-.28-.29-.67-.53-.5a1,1,0,0,0-.19.89,1.82,1.82,0,0,0,.3.75A4.34,4.34,0,0,0,542.32,384.51Z"/><path class="cls-9" d="M555.14,369.86a6.09,6.09,0,0,0-.9,1,5.62,5.62,0,0,0-.65,6,12,12,0,0,0,.68,1.15s-.12-.08-.26-.25a5,5,0,0,1-.56-.83,5.47,5.47,0,0,1,.67-6.15,4.7,4.7,0,0,1,.71-.7A1.39,1.39,0,0,1,555.14,369.86Z"/><path class="cls-9" d="M548.52,365.89a30.64,30.64,0,0,1,2.73,2.49,29.45,29.45,0,0,1,2.59,2.65,32.24,32.24,0,0,1-2.73-2.49A30.84,30.84,0,0,1,548.52,365.89Z"/><path class="cls-9" d="M551.49,378.41a14.11,14.11,0,0,1-3.67,3.82s.84-.84,1.85-1.88S551.44,378.38,551.49,378.41Z"/><path class="cls-9" d="M554,375.91c.07,0,.12.24.22.51s.23.49.19.53-.27-.13-.39-.45S553.91,375.89,554,375.91Z"/><path class="cls-9" d="M553.72,373.79c.07,0,.12.22.12.48s0,.48-.11.48-.1-.21-.11-.48S553.67,373.79,553.72,373.79Z"/><path class="cls-9" d="M554.53,372a5.11,5.11,0,0,0-.26.47c-.13.25-.15.48-.21.49s-.14-.28,0-.58S554.5,371.87,554.53,372Z"/><path class="cls-9" d="M555.23,370.7V371c0,.14-.16.25-.21.22s0-.16,0-.31S555.14,370.67,555.23,370.7Z"/><path class="cls-4" d="M491.3,394.48l.23-9.6,18,.32-.19,14.05-1.12.06c-5,.17-25.27.59-28.57-.48C475.94,397.65,491.3,394.48,491.3,394.48Z"/><path class="cls-3" d="M502.81,399a6.33,6.33,0,0,1,2.37-3.8,6,6,0,0,1,4.18-1.22l-.08,5Z"/><path class="cls-3" d="M483.77,396.29s-5.39,1.46-4.73,2.35,21.19,1.24,30.26.61v-.4l-24-.21S484.82,396.35,483.77,396.29Z"/><path class="cls-9" d="M509.56,398.85h-1.2l-3.27.08c-2.76.05-6.58.07-10.8,0s-8-.21-10.79-.36l-3.26-.19-.89-.07h.89l3.27.12c2.76.1,6.57.23,10.79.3s8,.06,10.79,0h4.19A1,1,0,0,1,509.56,398.85Z"/><path class="cls-9" d="M485.32,398.92a4.73,4.73,0,0,0-1.67-2.84,2.4,2.4,0,0,1,1.28,1.15A2.47,2.47,0,0,1,485.32,398.92Z"/><path class="cls-9" d="M490.67,396.32a4,4,0,0,1-.55-.7c-.27-.42-.42-.78-.37-.81s.3.28.55.7S490.72,396.28,490.67,396.32Z"/><path class="cls-9" d="M492.15,395.57c0,.05-.33-.15-.63-.43s-.52-.55-.48-.6.32.15.63.44S492.19,395.53,492.15,395.57Z"/><path class="cls-9" d="M493.1,393.93a2.3,2.3,0,0,1-.94.09,2.36,2.36,0,0,1-1-.1,1.93,1.93,0,0,1,1-.11A2.14,2.14,0,0,1,493.1,393.93Z"/><path class="cls-9" d="M493.39,392.7a1.76,1.76,0,0,1-1,.28,1.8,1.8,0,0,1-1.05-.15,7.41,7.41,0,0,1,1.05-.07A6,6,0,0,1,493.39,392.7Z"/><path class="cls-9" d="M490.1,394.74a3.82,3.82,0,0,1-1.17,0,6.56,6.56,0,0,1-1.22-.29,3.36,3.36,0,0,1-.7-.3.62.62,0,0,1-.27-.37.42.42,0,0,1,.17-.45,2.1,2.1,0,0,1,2.61.66,2,2,0,0,1,.37.77.86.86,0,0,1,0,.32,3.53,3.53,0,0,0-.52-1,2.19,2.19,0,0,0-1-.66,1.79,1.79,0,0,0-1.38.08c-.19.13-.12.34.08.47a3.07,3.07,0,0,0,.64.29,8.41,8.41,0,0,0,1.19.33A10.92,10.92,0,0,1,490.1,394.74Z"/><path class="cls-9" d="M489.79,394.8a1.2,1.2,0,0,1-.11-.81,1.84,1.84,0,0,1,.32-.85,1.15,1.15,0,0,1,1-.56.43.43,0,0,1,.35.51v0a1.19,1.19,0,0,1-.2.51,2.87,2.87,0,0,1-.56.69,1.61,1.61,0,0,1-.67.46,7.88,7.88,0,0,0,.56-.56,4,4,0,0,0,.49-.68c.17-.25.29-.68,0-.74s-.58.25-.76.48a1.87,1.87,0,0,0-.35.74A5.16,5.16,0,0,0,489.79,394.8Z"/><path class="cls-9" d="M509.28,393.93a6.64,6.64,0,0,0-1.33,0,5.59,5.59,0,0,0-4.77,3.67,13,13,0,0,0-.37,1.28,1.09,1.09,0,0,1,0-.36,5.23,5.23,0,0,1,.21-1,5.45,5.45,0,0,1,4.91-3.78,5.35,5.35,0,0,1,1,0A3.31,3.31,0,0,1,509.28,393.93Z"/><path class="cls-9" d="M507.54,386.39a30.59,30.59,0,0,1,.1,3.71,32.51,32.51,0,0,1-.13,3.69,28.42,28.42,0,0,1-.09-3.69A30.6,30.6,0,0,1,507.54,386.39Z"/><path class="cls-9" d="M500.55,397.2a9.75,9.75,0,0,1-2.64.21,10.37,10.37,0,0,1-2.61-.25c0-.06,1.17,0,2.62,0A23.33,23.33,0,0,1,500.55,397.2Z"/><path class="cls-9" d="M504.08,397.25s-.11.26-.23.52-.19.5-.25.5-.1-.28,0-.6S504,397.21,504.08,397.25Z"/><path class="cls-9" d="M505.43,395.62a1.31,1.31,0,0,1-.26.42c-.19.19-.38.3-.42.25s.07-.22.26-.41S505.39,395.58,505.43,395.62Z"/><path class="cls-9" d="M507.34,394.9c0,.06-.25.05-.51.15s-.46.22-.51.17.11-.28.44-.38S507.36,394.85,507.34,394.9Z"/><path class="cls-9" d="M508.7,394.56c0,.07-.08.15-.23.21s-.29.06-.31,0,.08-.14.23-.19S508.68,394.51,508.7,394.56Z"/><path class="cls-10" d="M500.92,188.71c-6.67,19.69-18.68,55.34-18.68,55.34a30.07,30.07,0,0,1-5,2.39,13.63,13.63,0,0,1-3.66.37,1.13,1.13,0,0,0-1.36.86,1.15,1.15,0,0,0,.24,1c.73.71,3.82,1.22,7.33.18s.9,4.25-.25,6-4.4,7.5-4.19,8.28c.38,1.14,1.78.66,2.89-1.11s4.43-6.94,4.91-6.66c.95.52-4.79,9.68-4.79,9.68s-1.31,1.6-.31,2.38c1.83,1.41,7.44-8.42,7.95-9.42.36-.66.83-.14.41.55s-5.31,8.75-3.84,9.67,4.95-7.11,6.35-8.61c1.6-1.68-3.2,6.72-1.81,7.73.52.38,1,.58,3.37-4.28a142.65,142.65,0,0,0,5.42-14.59c5.13-10.28,19.81-42,24.67-63.64"/><path class="cls-4" d="M504.45,140.67s14.28-4.13,17.09,17.71c1.76,13.68,5.78,46.73,7.33,63.73.14,1.6-.87,1-.74,2.29.13,1.54,1.49,2.78,1.49,3.88,0,3.51-4,3.45-4,3.45l-37.29,1.77s-3.47.08-3.48-2.95c0-2.29,1.5-3.3,1.6-4.74,1.59-20.43,1.56-71.31,3.86-78.3C492.49,140.81,493.89,140.67,504.45,140.67Z"/><path class="cls-3" d="M507.28,141.71a10.77,10.77,0,0,1,.87.92c.52.59,1.25,1.4,2,2.31s1.44,1.79,1.89,2.42a6.5,6.5,0,0,1,.68,1,8.45,8.45,0,0,1-.8-1c-.48-.62-1.15-1.47-1.94-2.38s-1.5-1.74-2-2.34A8,8,0,0,1,507.28,141.71Z"/><path class="cls-3" d="M508.92,141.34a6.28,6.28,0,0,1-.59.27l-1.65.68c-1.4.56-3.35,1.3-5.52,2.09s-4.19,1.38-5.61,1.81l-1.72.49a3.5,3.5,0,0,1-.64.15,4.62,4.62,0,0,1,.62-.23l1.7-.55c1.43-.46,3.41-1.11,5.57-1.87s4.13-1.46,5.54-2l1.67-.62A2.41,2.41,0,0,1,508.92,141.34Z"/><path class="cls-3" d="M493.39,142.76a16.56,16.56,0,0,1,0,4A18.91,18.91,0,0,1,493.39,142.76Z"/><path class="cls-1" d="M518.87,148.45c0,.07-6.33.11-14.15.11s-14.15,0-14.15-.11,6.33-.1,14.15-.1S518.87,148.39,518.87,148.45Z"/><path class="cls-1" d="M520.71,153.11h-1.24l-3.36-.13L505,152.64l-11.09-.21h-4.6a1.71,1.71,0,0,1,.32,0h4.28c2.84,0,6.77,0,11.1.14s8.26.27,11.09.4l3.36.2.91.07Z"/><path class="cls-1" d="M521.15,157.22c0,.07-7.16.12-16,.12s-16-.05-16-.12,7.16-.1,16-.1S521.15,157.17,521.15,157.22Z"/><path class="cls-1" d="M522,161.68c0,.06-7.42.12-16.58.12s-16.57-.06-16.57-.12,7.42-.1,16.57-.1S522,161.6,522,161.68Z"/><path class="cls-1" d="M522.69,166.58c0,.06-7.58.1-17,.1s-16.95,0-16.95-.1,7.58-.11,16.95-.11S522.69,166.52,522.69,166.58Z"/><path class="cls-1" d="M523.19,171.48c0,.05-7.71.1-17.2.1s-17.18,0-17.18-.1,7.69-.12,17.18-.12S523.19,171.41,523.19,171.48Z"/><path class="cls-1" d="M523.74,176.72c0,.06-7.84.1-17.49.1s-17.48,0-17.48-.1,7.82-.12,17.48-.12S523.74,176.66,523.74,176.72Z"/><path class="cls-1" d="M524.37,181.26c0,.06-8,.11-17.79.11s-17.79,0-17.79-.11,7.95-.1,17.79-.1S524.37,181.2,524.37,181.26Z"/><path class="cls-1" d="M525.12,186.25c0,.07-8.13.11-18.15.11s-18.16,0-18.16-.11,8.12-.11,18.16-.11S525.12,186.19,525.12,186.25Z"/><path class="cls-1" d="M525.54,191.25s-8.22.1-18.37.1-18.36,0-18.36-.1,8.22-.12,18.36-.12S525.54,191.18,525.54,191.25Z"/><path class="cls-1" d="M526.12,196.23c0,.06-8.38.11-18.65.11s-18.66-.05-18.66-.11,8.37-.11,18.66-.11S526.12,196.13,526.12,196.23Z"/><path class="cls-1" d="M526.68,201.22c0,.06-8.48.11-18.93.11s-18.94-.05-18.94-.11,8.47-.11,18.94-.11S526.68,201.16,526.68,201.22Z"/><path class="cls-1" d="M527.24,206.21c0,.06-8.8.11-19.66.11s-19.65,0-19.65-.11,8.79-.1,19.65-.1S527.24,206.15,527.24,206.21Z"/><path class="cls-1" d="M527.77,211.2c0,.07-9.08.11-20.28.11s-20.29,0-20.29-.11,9.08-.11,20.29-.11S527.77,211.14,527.77,211.2Z"/><path class="cls-1" d="M528.28,216.2c0,.05-9.23.1-20.61.1s-20.63,0-20.63-.1,9.23-.12,20.63-.12S528.28,216.13,528.28,216.2Z"/><path class="cls-1" d="M528.77,221.18c0,.06-9.34.11-20.86.11s-20.87,0-20.87-.11,9.34-.11,20.87-.11S528.77,221.12,528.77,221.18Z"/><path class="cls-1" d="M528.49,226.17c0,.06-9.42,0-21-.09s-21-.23-21-.29,9.42,0,21,.09S528.49,226.11,528.49,226.17Z"/><path class="cls-1" d="M528.49,230.77c0,.07-9.75.2-21.79.33s-21.8.15-21.8.1,9.76-.21,21.79-.32S528.49,230.67,528.49,230.77Z"/><path class="cls-4" d="M500.36,207.39a9.58,9.58,0,0,0,6.83-1.78,21,21,0,0,0,4.85-5.36,50.09,50.09,0,0,0,8.46-24.73,108.9,108.9,0,0,0-.09-13.52,110,110,0,0,1-6.57,25.54,64.86,64.86,0,0,1-11.39,18.9"/><g class="cls-5"><path d="M500.36,207.39a9.58,9.58,0,0,0,6.83-1.78,21,21,0,0,0,4.85-5.36,50.09,50.09,0,0,0,8.46-24.73,108.9,108.9,0,0,0-.09-13.52,110,110,0,0,1-6.57,25.54,64.86,64.86,0,0,1-11.39,18.9"/></g><path class="cls-3" d="M523.89,211.93a38.59,38.59,0,0,1-3.72,3.51,47.12,47.12,0,0,1-4.47,3.33,49.42,49.42,0,0,1-12.28,5.83A50.73,50.73,0,0,1,498,226a39.57,39.57,0,0,1-5.09.65l.36-.07,1-.12c.88-.11,2.1-.3,3.7-.62a50.4,50.4,0,0,0,5.37-1.39,54.67,54.67,0,0,0,6.28-2.49,57.26,57.26,0,0,0,5.92-3.31,55,55,0,0,0,4.47-3.27c1.22-1.05,2.17-1.86,2.81-2.47l.75-.7Z"/><path class="cls-3" d="M513.65,188.32a.56.56,0,0,1-.21-.06l-.59-.19-2.15-.74-7-2.61c-2.74-1.05-5.23-1.83-7.11-2.35l-2.18-.62-.6-.17-.2-.08h.21l.61.14c.52.11,1.27.3,2.21.54,1.85.51,4.38,1.29,7.13,2.31s5.24,2,7,2.66l2.1.82.57.22Z"/><path class="cls-3" d="M513.65,188.32s.09-.29.29-.81l.84-2.33c.72-2,1.77-5,2.78-8.67A121.69,121.69,0,0,0,520,163.25a16.64,16.64,0,0,0-.33-7.84,10.84,10.84,0,0,0-2.09-3.58,19.55,19.55,0,0,0-1.52-1.5,6.34,6.34,0,0,0-1.78-1.2,7.24,7.24,0,0,0-4.19-.44,10.31,10.31,0,0,0-3.83,1.58c-2.35,1.51-3.44,4.13-4.25,6.48-1.6,4.82-3,9.16-4.27,12.82l-2.88,8.64c-.34,1-.6,1.75-.8,2.34s-.29.81-.29.81l.25-.83.75-2.36c.69-2.09,1.66-5,2.83-8.65s2.64-8,4.18-12.83a20.37,20.37,0,0,1,1.55-3.59,8.87,8.87,0,0,1,2.78-3,10.13,10.13,0,0,1,3.91-1.62,7.4,7.4,0,0,1,4.31.44,6.57,6.57,0,0,1,1.83,1.24,14,14,0,0,1,1.54,1.54,10.86,10.86,0,0,1,2.1,3.64,16.93,16.93,0,0,1,.33,7.94,119.27,119.27,0,0,1-2.49,13.27c-1,3.72-2.09,6.64-2.84,8.66Z"/><path class="cls-3" d="M522.5,248.22l.82,60.84a68.16,68.16,0,0,0,1.31,12.5c1.12,5.62,3.14,12.93,6.36,17.48,4.93,6.88,22.3,26.37,22.3,26.37L538.64,382.5s-31-24.7-33-47.5c-1.05-11.59,0-80.87,0-80.87Z"/><path class="cls-3" d="M488.31,233.48l-.38,157.42h24.23l4.26-137s7-4.62,8.24-10.52c1.68-8,.92-11.72.92-11.72Z"/><rect class="cls-9" x="486.83" y="387.1" width="26.33" height="3.8"/><rect class="cls-9" x="531.96" y="370.84" width="26.33" height="3.8" transform="translate(-100.44 511.81) rotate(-46.52)"/><path class="cls-3" d="M551.79,363.27a1.39,1.39,0,0,1-.15.19l-.46.49-1.67,1.8c-1.42,1.53-3.33,3.68-5.54,6s-4.19,4.19-5.73,5.77l-1.76,1.72-.49.46a1.29,1.29,0,0,1-.18.16,1.33,1.33,0,0,1,.14-.19l.46-.49,1.71-1.77,5.69-5.82,5.58-5.91,1.73-1.76.49-.46A.93.93,0,0,1,551.79,363.27Z"/><path class="cls-9" d="M506.77,232.66a1.5,1.5,0,0,1-.08.39,6.6,6.6,0,0,1-1.4,2.78,23.44,23.44,0,0,1-1.85,1.88,18.16,18.16,0,0,0-2.21,2.43c-.71,1.05-.65,2.4-.72,3.78-.1,2.82-.2,6-.33,9.57s-.25,7.44-.38,11.61-.24,8.63-.37,13.32c-.25,9.42-.61,19.7-.83,30.53-.36,21.65-.69,41.25-.93,55.46-.26,13.87-.41,21.51-.44,23v-1.6c0-1,0-2.61,0-4.58,0-4,.14-9.73.25-16.8.22-14.23.52-33.83.85-55.47.22-10.83.59-21.15.84-30.53.15-4.7.27-9.15.4-13.32s.28-8.06.42-11.6.24-6.76.34-9.58c.09-1.38,0-2.79.77-3.83a17.86,17.86,0,0,1,2.24-2.44,25,25,0,0,0,1.85-1.86,7.43,7.43,0,0,0,1.05-1.61,7.83,7.83,0,0,0,.39-1.12Z"/><path class="cls-9" d="M492.28,234.55a1.37,1.37,0,0,1-.34-.41c-.15-.26-.2-.49-.15-.51s.21.16.35.41S492.35,234.52,492.28,234.55Z"/><path class="cls-9" d="M493.67,236.11a1.35,1.35,0,0,1-.45-.28c-.2-.2-.34-.41-.3-.45s.25.09.45.29S493.71,236.07,493.67,236.11Z"/><path class="cls-9" d="M495.48,237.22c0,.05-.25,0-.51-.15s-.44-.29-.41-.34.27,0,.52.14S495.48,237.17,495.48,237.22Z"/><path class="cls-9" d="M497.45,237.78c0,.06-.24.06-.53,0s-.5-.15-.49-.2.26-.07.53,0S497.46,237.72,497.45,237.78Z"/><path class="cls-9" d="M499.53,237.7c0,.06-.2.15-.5.18s-.53,0-.53,0,.23-.12.51-.16S499.52,237.65,499.53,237.7Z"/><path class="cls-9" d="M501.5,237a1.26,1.26,0,0,1-.44.31c-.27.12-.5.18-.51.12s.17-.2.43-.32A1.39,1.39,0,0,1,501.5,237Z"/><path class="cls-9" d="M503.18,235.74a1.57,1.57,0,0,1-.33.43c-.22.2-.44.31-.47.25s.12-.23.33-.41S503.13,235.7,503.18,235.74Z"/><path class="cls-9" d="M504.44,234.08c.06,0,0,.25-.2.5s-.32.42-.37.38,0-.26.2-.5S504.39,234.05,504.44,234.08Z"/><path class="cls-9" d="M505,232.76a.2.2,0,0,1,0,.21c-.08.1-.11.17-.16.15s-.08-.12-.05-.21A.21.21,0,0,1,505,232.76Z"/><path class="cls-9" d="M498.55,241.8c-.06,0-.1-.24-.09-.52s.06-.52.12-.52.11.24.1.53S498.62,241.8,498.55,241.8Z"/><path class="cls-9" d="M498.48,243.9c-.06,0-.11-.24-.1-.53s.08-.52.13-.52.1.24.09.52S498.54,243.9,498.48,243.9Z"/><path class="cls-9" d="M498.4,246a1.5,1.5,0,0,1-.08-.52c0-.29.06-.53.13-.53s.09.24.09.53S498.47,246,498.4,246Z"/><path class="cls-9" d="M498.34,248.08c-.06,0-.1-.24-.09-.52s.07-.52.12-.52.11.24.1.52S498.4,248.08,498.34,248.08Z"/><path class="cls-9" d="M498.28,250.18c-.06,0-.11-.24-.1-.54s.07-.51.13-.51.11.23.09.52S498.34,250.18,498.28,250.18Z"/><path class="cls-9" d="M498.22,252.27c-.07,0-.11-.24-.1-.53s.06-.52.13-.52.1.23.09.53S498.28,252.27,498.22,252.27Z"/><path class="cls-9" d="M498.15,254.36c-.06,0-.1-.24-.09-.52s.06-.52.12-.52.11.24.1.52S498.22,254.36,498.15,254.36Z"/><path class="cls-9" d="M498.09,256.45c-.06,0-.1-.24-.09-.52s.06-.52.12-.52.11.24.1.52S498.15,256.45,498.09,256.45Z"/><path class="cls-9" d="M498,258.55a1.53,1.53,0,0,1-.1-.53c0-.28.07-.52.13-.52s.1.24.09.52S498.09,258.55,498,258.55Z"/><path class="cls-9" d="M498,260.64c-.07,0-.11-.24-.1-.52s.06-.53.13-.53.09.25.09.53S498,260.64,498,260.64Z"/><path class="cls-9" d="M497.91,262.73c-.05,0-.1-.23-.09-.52s.06-.52.12-.52.11.24.1.53S498,262.74,497.91,262.73Z"/><path class="cls-9" d="M497.86,264.84c-.06,0-.1-.24-.09-.54s.06-.52.12-.52.1.24.1.53S497.92,264.84,497.86,264.84Z"/><path class="cls-9" d="M497.81,266.93c-.06,0-.11-.24-.1-.52s.07-.53.12-.53.1.23.09.53S497.87,266.93,497.81,266.93Z"/><path class="cls-9" d="M497.76,269c-.07,0-.11-.24-.1-.52s0-.52.12-.52.1.24.09.52S497.81,269,497.76,269Z"/><path class="cls-9" d="M497.7,271.12c-.06,0-.1-.23-.1-.53s.06-.52.12-.52.11.24.1.53S497.76,271.13,497.7,271.12Z"/><path class="cls-9" d="M497.65,273.22c-.06,0-.1-.24-.09-.53s0-.53.11-.52.11.23.1.53S497.71,273.22,497.65,273.22Z"/><path class="cls-9" d="M497.58,275.31c-.06,0-.11-.24-.1-.52s.07-.52.12-.52.1.24.1.52S497.66,275.31,497.58,275.31Z"/><path class="cls-9" d="M497.58,277.42c-.05,0-.11-.24-.1-.54s.07-.52.13-.52.09.24.09.53A1.26,1.26,0,0,1,497.58,277.42Z"/><path class="cls-9" d="M497.5,279.51c-.06,0-.1-.24-.1-.52s.06-.53.13-.53.1.23.09.53S497.58,279.51,497.5,279.51Z"/><path class="cls-9" d="M497.45,281.6c-.06,0-.1-.23-.09-.52s.06-.52.11-.52.11.24.11.53S497.52,281.61,497.45,281.6Z"/><path class="cls-9" d="M497.41,283.71c-.06,0-.1-.24-.1-.53s.06-.52.12-.52.11.23.1.52S497.46,283.71,497.41,283.71Z"/><path class="cls-9" d="M497.36,285.8a1.23,1.23,0,0,1-.1-.52c0-.3.07-.53.12-.53s.1.24.1.53S497.42,285.8,497.36,285.8Z"/><path class="cls-9" d="M497.32,287.9c-.07,0-.11-.24-.1-.53s0-.52.12-.51.1.23.09.52S497.38,287.9,497.32,287.9Z"/><path class="cls-9" d="M497.27,290c-.06,0-.1-.23-.1-.53s.06-.52.13-.52.1.24.09.52S497.33,290,497.27,290Z"/><path class="cls-9" d="M497.23,292.1c-.06,0-.1-.24-.1-.52s.06-.54.12-.53.11.23.1.53S497.28,292.1,497.23,292.1Z"/><path class="cls-9" d="M497.18,294.19a1.58,1.58,0,0,1-.09-.52c0-.29.06-.52.12-.52s.1.24.1.52S497.24,294.2,497.18,294.19Z"/><path class="cls-9" d="M497.14,296.3c-.05,0-.11-.24-.1-.53s.07-.52.12-.52.1.23.1.52S497.2,296.3,497.14,296.3Z"/><path class="cls-9" d="M497.1,298.4a1.3,1.3,0,0,1-.1-.53c0-.3.07-.53.12-.53s.1.24.1.54S497.16,298.4,497.1,298.4Z"/><path class="cls-9" d="M497.05,300.49A1.66,1.66,0,0,1,497,300c0-.28.06-.52.12-.52s.1.23.1.52S497.12,300.49,497.05,300.49Z"/><path class="cls-9" d="M497,302.6c-.06,0-.1-.24-.1-.54s.06-.52.12-.52.11.24.1.53S497.08,302.6,497,302.6Z"/><path class="cls-9" d="M497,304.69c-.06,0-.1-.23-.1-.52s.06-.53.12-.53.11.24.1.53S497,304.69,497,304.69Z"/><path class="cls-9" d="M496.94,306.79c-.06,0-.11-.24-.11-.52s.07-.52.13-.52.11.23.09.52S497,306.79,496.94,306.79Z"/><path class="cls-9" d="M496.9,308.9c-.07,0-.11-.24-.1-.54s0-.52.12-.52.1.24.09.53S497,308.9,496.9,308.9Z"/><path class="cls-9" d="M496.86,311a1.23,1.23,0,0,1-.1-.52c0-.3,0-.53.12-.53s.1.23.1.53S496.92,311,496.86,311Z"/><path class="cls-9" d="M496.82,313.09c-.06,0-.1-.24-.1-.53s.06-.52.11-.52.11.24.11.53S496.88,313.09,496.82,313.09Z"/><path class="cls-9" d="M496.78,315.19c-.06,0-.1-.23-.1-.53s.06-.52.12-.52.11.24.1.52S496.85,315.2,496.78,315.19Z"/><path class="cls-9" d="M496.74,317.29c-.06,0-.1-.24-.09-.52s0-.53.11-.53.11.23.11.53S496.8,317.29,496.74,317.29Z"/><path class="cls-9" d="M496.71,319.39c-.06,0-.11-.24-.11-.53s.07-.52.12-.52.1.24.1.53S496.76,319.39,496.71,319.39Z"/><path class="cls-9" d="M496.67,321.49c-.07,0-.11-.23-.11-.53s.07-.52.13-.52.1.24.09.52S496.73,321.49,496.67,321.49Z"/><path class="cls-9" d="M496.63,323.59c-.07,0-.11-.24-.1-.52s0-.54.12-.53.1.23.1.53S496.69,323.59,496.63,323.59Z"/><path class="cls-9" d="M496.59,325.69c-.06,0-.1-.24-.1-.53s.06-.52.11-.52.11.24.11.53S496.65,325.69,496.59,325.69Z"/><path class="cls-9" d="M496.53,327.79c-.06,0-.1-.24-.1-.53s.06-.52.12-.52.11.23.1.52S496.62,327.79,496.53,327.79Z"/><path class="cls-9" d="M496.53,329.89c-.06,0-.1-.24-.09-.53s.05-.53.11-.53.11.24.11.54A1.17,1.17,0,0,1,496.53,329.89Z"/><path class="cls-9" d="M496.47,332c-.05,0-.11-.23-.1-.52s.07-.52.12-.52.1.24.1.52S496.53,332,496.47,332Z"/><path class="cls-9" d="M496.44,334.09c-.07,0-.11-.24-.11-.53s.07-.52.13-.52.1.23.09.52S496.53,334.09,496.44,334.09Z"/><path class="cls-9" d="M496.4,336.18c-.07,0-.11-.23-.1-.52s.05-.53.12-.53.1.24.09.54S496.46,336.19,496.4,336.18Z"/><path class="cls-9" d="M496.35,338.28c-.05,0-.1-.24-.09-.52s0-.52.11-.52.11.23.11.52S496.42,338.28,496.35,338.28Z"/><path class="cls-9" d="M496.32,340.39c-.06,0-.1-.24-.1-.54s.06-.52.11-.52.11.24.11.53S496.37,340.39,496.32,340.39Z"/><path class="cls-9" d="M496.28,342.48c-.06,0-.1-.23-.1-.52s.06-.53.12-.53.11.24.1.53S496.33,342.48,496.28,342.48Z"/><path class="cls-9" d="M496.24,344.58c-.06,0-.11-.24-.11-.53s.07-.52.13-.52.1.24.09.53S496.3,344.58,496.24,344.58Z"/><path class="cls-9" d="M496.2,346.68c-.07,0-.11-.23-.1-.53s0-.52.12-.52.1.24.09.52S496.26,346.68,496.2,346.68Z"/><path class="cls-9" d="M496.15,348.78c-.06,0-.1-.24-.09-.53s.05-.53.12-.53.1.24.09.54S496.22,348.78,496.15,348.78Z"/><path class="cls-9" d="M496.11,350.87c-.06,0-.1-.24-.09-.52s0-.52.11-.52.11.24.11.52S496.18,350.87,496.11,350.87Z"/><path class="cls-9" d="M496.07,353c-.06,0-.1-.24-.09-.54s0-.52.11-.52.11.24.1.53S496.13,353,496.07,353Z"/><path class="cls-9" d="M496,355.07c-.06,0-.11-.24-.1-.52s.06-.53.12-.53.1.23.09.53S496.09,355.07,496,355.07Z"/><path class="cls-9" d="M496,357.16c-.07,0-.11-.23-.11-.52s.07-.52.13-.52.1.24.09.53S496.05,357.17,496,357.16Z"/><path class="cls-9" d="M496,359.27c-.07,0-.11-.25-.11-.54s.06-.52.13-.51.1.23.09.52S496,359.27,496,359.27Z"/><path class="cls-9" d="M495.89,361.36a1.38,1.38,0,0,1-.09-.52c0-.29.06-.53.12-.53s.1.24.1.53S496,361.36,495.89,361.36Z"/><path class="cls-9" d="M495.85,363.45c-.06,0-.1-.23-.09-.52s0-.52.11-.52.11.24.11.53S495.91,363.46,495.85,363.45Z"/><path class="cls-9" d="M495.81,365.56c-.06,0-.11-.25-.11-.54s.07-.52.13-.51.1.23.09.52S495.86,365.56,495.81,365.56Z"/><path class="cls-9" d="M495.76,367.65c-.07,0-.11-.24-.1-.52s.07-.53.12-.53.1.24.1.53S495.82,367.65,495.76,367.65Z"/><path class="cls-9" d="M495.72,369.74c-.07,0-.11-.23-.11-.52s.06-.53.13-.53.1.25.09.53S495.77,369.74,495.72,369.74Z"/><path class="cls-9" d="M495.66,371.83c-.06,0-.1-.23-.09-.52s0-.52.11-.52.11.24.1.53S495.73,371.84,495.66,371.83Z"/><path class="cls-9" d="M495.61,373.94c-.06,0-.1-.24-.09-.54s.06-.52.11-.51.11.23.11.52S495.67,373.94,495.61,373.94Z"/><path class="cls-9" d="M495.56,376c-.06,0-.11-.24-.1-.53s.07-.52.13-.52.09.23.09.53S495.62,376,495.56,376Z"/><path class="cls-9" d="M495.48,378.12c-.06,0-.1-.24-.09-.52s.06-.52.13-.52.1.23.09.52S495.57,378.12,495.48,378.12Z"/><path class="cls-9" d="M495.48,380.22c-.06,0-.1-.24-.09-.53s.06-.52.13-.52.1.24.09.52A1.43,1.43,0,0,1,495.48,380.22Z"/><path class="cls-9" d="M495.4,382.31c-.06,0-.1-.24-.09-.52s.06-.53.12-.53.1.24.1.53S495.48,382.31,495.4,382.31Z"/><path class="cls-9" d="M495.35,384.4c-.06,0-.11-.24-.1-.52s.07-.52.12-.52.1.24.09.52S495.4,384.4,495.35,384.4Z"/><path class="cls-9" d="M495.3,386.39c-.07,0-.11-.21-.11-.47s.06-.47.13-.47.1.21.09.47S495.35,386.4,495.3,386.39Z"/><path class="cls-10" d="M493.59,146.18c-.11-2.09-.69-11.36-.69-11.36s-6.55-.41-7.23-6.86-.95-21.39-.95-21.39h0a22.76,22.76,0,0,1,22.87.65l1.64,1,.17,7.58-.37,6.83-.29,18.56-15.12,5A.24.24,0,0,1,493.59,146.18Z"/><path class="cls-3" d="M485.72,116.93a.83.83,0,0,0,.86.8h0a.83.83,0,1,0-.86-.8Z"/><path class="cls-3" d="M485.66,116.65c.11.1.7-.45,1.59-.53s1.57.31,1.66.18-.07-.25-.37-.44a2.28,2.28,0,0,0-1.35-.28,2.1,2.1,0,0,0-1.25.57C485.68,116.39,485.61,116.6,485.66,116.65Z"/><path class="cls-3" d="M495.87,115.85a.8.8,0,0,0-.17,1.13l0,0a.82.82,0,1,0,1.29-1,.85.85,0,0,0-1.18-.14h0Z"/><path class="cls-3" d="M495.54,116.21c.11.1.7-.44,1.59-.53s1.58.31,1.66.18-.07-.24-.37-.42a2.13,2.13,0,0,0-1.34-.3,2.21,2.21,0,0,0-1.26.57C495.56,116,495.48,116.17,495.54,116.21Z"/><path class="cls-3" d="M492.66,123.92a4.56,4.56,0,0,1-1.47.18.75.75,0,0,1-.82-.34,1.47,1.47,0,0,1,0-1c.16-.66.32-1.25.49-1.88a25.74,25.74,0,0,1,1.56-4.76,26.31,26.31,0,0,1-1.1,4.88c-.18.62-.35,1.23-.53,1.88a1.16,1.16,0,0,0-.11.69c0,.13.23.17.46.17A4.88,4.88,0,0,1,492.66,123.92Z"/><path class="cls-6" d="M495.64,124.59c.87-.64-2.43,1.6-4.25,1.68a2.47,2.47,0,0,0,3,.71A1.89,1.89,0,0,0,495.64,124.59Z"/><path class="cls-11" d="M492.9,134.94a16.19,16.19,0,0,0,8.45-3.27s-1.74,4.83-8.24,4.85Z"/><path class="cls-3" d="M505.82,102.78A25.05,25.05,0,0,0,499.87,99a8.68,8.68,0,0,0-6.87-.11c-1,.46-1.83,1.16-2.84,1.56-2.09.83-4.73.21-6.58,1.53a4.47,4.47,0,0,0-1.05,5.62,6.68,6.68,0,0,0,5.09,3.2,13.52,13.52,0,0,0,6.13-.89,5.28,5.28,0,0,1,3.56-.45c1,.43,1.84,1.62,3,1.73s2.21-.66,2.95,0a2,2,0,0,1,.47,1.13c.4,2.23,1.71,6.73,2.09,9,1.47.63,2.16-1.33,3.75-1.36.25-4.92,2.38-9.87,1.13-14.66a5,5,0,0,0-1.87-3,2.49,2.49,0,0,0-3.29.37"/><path class="cls-10" d="M506.83,114.83c.11-.07,4.32-1.62,5.07,3.59s-4.76,4.25-4.79,4.1S506.83,114.83,506.83,114.83Z"/><path class="cls-11" d="M508.45,120.46a1.39,1.39,0,0,0,.26.09.85.85,0,0,0,.68-.08,2.25,2.25,0,0,0,.75-2.17,3.27,3.27,0,0,0-.44-1.26,1.06,1.06,0,0,0-.79-.6.48.48,0,0,0-.5.32V117s-.13-.08-.12-.3a.66.66,0,0,1,.16-.35.73.73,0,0,1,.48-.21,1.3,1.3,0,0,1,1.05.68,3,3,0,0,1,.52,1.4,2.4,2.4,0,0,1-1,2.45,1.07,1.07,0,0,1-.86,0C508.47,120.58,508.43,120.47,508.45,120.46Z"/><path class="cls-3" d="M504.72,99.3a3.93,3.93,0,0,1,.7,1.84c.24,1.06.32,1.94.17,2s-.47-.8-.71-1.84S504.57,99.33,504.72,99.3Z"/><path class="cls-3" d="M507,99.55c.13,0-.1.9-.53,1.88s-.88,1.74-1,1.68.1-.91.52-1.9S506.87,99.49,507,99.55Z"/><path class="cls-10" d="M494.37,181.76a11.64,11.64,0,0,1-1.86,4.12c-3,3.24-28.66-24.68-28.66-24.68a30.09,30.09,0,0,1-.2-5.45,13.57,13.57,0,0,1,1.11-3.46,1.13,1.13,0,0,0-1.24-1.73c-.94.35-2.61,3-3,6.55s-4.19-.87-5.35-2.6-5.05-6.93-5.86-7c-1.19-.1-1.31,1.34-.14,3s4.54,6.73,4.11,7.05c-.86.65-6.89-8.13-6.89-8.13s-.93-1.82-2-1.21c-2,1,4.7,10,5.36,10.87.46.57-.2.8-.66.16s-5.83-8.26-7.24-7.33,4.49,7.33,5.28,9.14c.9,2.09-4.81-5.55-6.28-4.69-.54.32-.91.64,2.55,4.73a140.66,140.66,0,0,0,11.09,10.61c7.32,8.68,32.54,37.54,44.34,35.92a8.76,8.76,0,0,0,6.49-4.05,91.78,91.78,0,0,0,8-15.46Z"/><path class="cls-4" d="M216.59,392.52l-.23-9.6-18,.32.19,14.05,1.11,0c5,.19,25.28.61,28.57-.46C231.93,395.7,216.59,392.52,216.59,392.52Z"/><path class="cls-3" d="M205,397.07a6.17,6.17,0,0,0-2.36-3.79,6.08,6.08,0,0,0-4.19-1.24l.09,5Z"/><path class="cls-3" d="M224.09,394.33s5.38,1.46,4.73,2.35-21.19,1.24-30.26.61v-.4l24-.21S223,394.4,224.09,394.33Z"/><path class="cls-9" d="M198.27,396.88h4.47c2.76,0,6.57,0,10.79-.07s8-.18,10.79-.29l3.26-.11h.89a1.71,1.71,0,0,1,.32,0h-.31l-.88.07-3.27.19c-2.76.15-6.58.29-10.8.35s-8,0-10.79,0l-3.28-.08h-.89Z"/><path class="cls-9" d="M222.54,397a2.38,2.38,0,0,1,.4-1.68,2.5,2.5,0,0,1,1.27-1.17,8,8,0,0,0-1,1.28A7.58,7.58,0,0,0,222.54,397Z"/><path class="cls-9" d="M217.18,394.36a2.16,2.16,0,0,1,.38-.81c.26-.42.5-.73.55-.7s-.11.4-.37.8S217.23,394.39,217.18,394.36Z"/><path class="cls-9" d="M215.72,393.61a2.45,2.45,0,0,1,.48-.59c.31-.3.58-.47.62-.43s-.17.31-.48.59S215.76,393.65,215.72,393.61Z"/><path class="cls-9" d="M214.76,391.93a2.36,2.36,0,0,1,1-.11,2.33,2.33,0,0,1,.94.1,2,2,0,0,1-.94.11A1.93,1.93,0,0,1,214.76,391.93Z"/><path class="cls-9" d="M214.43,390.79a4.63,4.63,0,0,1,1,.06,7.18,7.18,0,0,1,1,0,1.71,1.71,0,0,1-1,.17A1.84,1.84,0,0,1,214.43,390.79Z"/><path class="cls-9" d="M217.77,392.78a5,5,0,0,0,1.13-.18,7.93,7.93,0,0,0,1.18-.33,3.15,3.15,0,0,0,.65-.29c.2-.13.27-.35.08-.47a1.79,1.79,0,0,0-1.38-.07,2,2,0,0,0-1,.66,3.11,3.11,0,0,0-.51,1,.55.55,0,0,1,0-.31,2.22,2.22,0,0,1,.36-.78,2.1,2.1,0,0,1,2.62-.67.49.49,0,0,1,.18.46.64.64,0,0,1-.29.37,2.83,2.83,0,0,1-.69.3,7.33,7.33,0,0,1-1.23.29A3.07,3.07,0,0,1,217.77,392.78Z"/><path class="cls-9" d="M218.07,392.88a5,5,0,0,0,0-.77,2,2,0,0,0-.34-.75c-.18-.23-.49-.51-.77-.48s-.18.49,0,.73a4.29,4.29,0,0,0,.49.69c.33.36.58.54.56.57a1.83,1.83,0,0,1-.67-.46,3.68,3.68,0,0,1-.56-.69,1.39,1.39,0,0,1-.2-.51.46.46,0,0,1,.35-.54,1.14,1.14,0,0,1,1,.57,1.86,1.86,0,0,1,.33.84A1.18,1.18,0,0,1,218.07,392.88Z"/><path class="cls-9" d="M198.59,392a1.87,1.87,0,0,1,.34-.1,5.46,5.46,0,0,1,1,0,5.59,5.59,0,0,1,3,1.14,5.41,5.41,0,0,1,1.87,2.64,4.1,4.1,0,0,1,.21,1,1.09,1.09,0,0,1,0,.36,7.4,7.4,0,0,0-.36-1.27A5.64,5.64,0,0,0,199.9,392C199.47,392,199,392,198.59,392Z"/><path class="cls-9" d="M200.36,384.43a32.68,32.68,0,0,1,.13,3.7,35.1,35.1,0,0,1-.13,3.7,32.42,32.42,0,0,1-.12-3.69A32.85,32.85,0,0,1,200.36,384.43Z"/><path class="cls-9" d="M207.31,395.25c0-.07,1.19,0,2.63,0a19.25,19.25,0,0,1,2.63,0,14,14,0,0,1-5.26,0Z"/><path class="cls-9" d="M203.79,395.3a.89.89,0,0,1,.42.42c.14.3.12.59.06.59s-.13-.24-.25-.5S203.74,395.34,203.79,395.3Z"/><path class="cls-9" d="M202.46,393.66a1.24,1.24,0,0,1,.42.27c.18.18.31.36.27.4s-.23-.07-.42-.25S202.38,393.71,202.46,393.66Z"/><path class="cls-9" d="M200.52,392.94c0-.05.25-.16.58-.06s.49.36.44.39-.23-.1-.51-.18S200.53,393,200.52,392.94Z"/><path class="cls-9" d="M199.16,392.61c0-.05.16-.05.3,0s.27.14.25.2-.17.06-.32,0S199.14,392.67,199.16,392.61Z"/><path class="cls-10" d="M279.59,123.18s15.34-15.86,16.74-15.15-5.63,7.15-4.7,8,8.37,6.46-3.59,15.37Z"/><path class="cls-11" d="M292.79,118.59a2.25,2.25,0,0,1-.24.46c-.24.39-.49.8-.74,1.23s-.74,1.17-1.13,1.8a2.51,2.51,0,0,1-.9.93,1.12,1.12,0,0,1-1.37-.2,1.21,1.21,0,0,1,.08-1.38c.23-.39.46-.72.68-1,.41-.62.8-1.21,1.16-1.78l.81-1.2a3.25,3.25,0,0,1,.31-.42,1.54,1.54,0,0,1-.24.48l-.74,1.22c-.37.58-.73,1.18-1.13,1.81l-.66,1a1,1,0,0,0-.1,1.14.91.91,0,0,0,1,.14,2.33,2.33,0,0,0,.84-.84l1.16-1.78.81-1.2A2.05,2.05,0,0,1,292.79,118.59Z"/><path class="cls-11" d="M293.58,120.32a1.68,1.68,0,0,1-.06.45,8.28,8.28,0,0,1-.39,1.19,6.85,6.85,0,0,1-1,1.55,2.67,2.67,0,0,1-.84.73,1,1,0,0,1-1.2-.11,1.18,1.18,0,0,1-.15-1.21,3.75,3.75,0,0,1,.57-.94c.39-.56.71-1,1-1.53a9.88,9.88,0,0,1,.68-1,1.64,1.64,0,0,1,.29-.35,3,3,0,0,1-.22.39l-.62,1c-.2.34-.56,1-.95,1.57a4.57,4.57,0,0,0-.54.9,1,1,0,0,0,.11,1,.75.75,0,0,0,.94.07,2.72,2.72,0,0,0,.8-.67,7.09,7.09,0,0,0,1-1.5A14.27,14.27,0,0,0,293.58,120.32Z"/><path class="cls-10" d="M284.33,119.9l5.62-.37a.81.81,0,0,1,.31,0c.29.1.35.51.27.82a3.11,3.11,0,0,1-1.95,2.1,9.47,9.47,0,0,1-2.89.49l-2.7.16"/><path class="cls-11" d="M283,123.08a3.09,3.09,0,0,1,.61-.08l1.65-.13a18.08,18.08,0,0,0,2.43-.28,3.77,3.77,0,0,0,2.43-1.5c.26-.41.48-1,.25-1.33-.11-.18-.35-.13-.6-.12l-.71,0-2.45.14-1.66.08a2.08,2.08,0,0,1-.61,0,4.07,4.07,0,0,1,.61-.07l1.65-.15,2.45-.19h.71a1.21,1.21,0,0,1,.38,0,.53.53,0,0,1,.41.19,1.07,1.07,0,0,1,.09.84,3,3,0,0,1-.34.76,4,4,0,0,1-2.57,1.58,18.29,18.29,0,0,1-2.46.23l-1.65.06A2.57,2.57,0,0,1,283,123.08Z"/><path class="cls-11" d="M294.55,121.83s-.05.11-.13.33a7.84,7.84,0,0,0-.29.94,5.17,5.17,0,0,1-.52,1.37,2.06,2.06,0,0,1-.63.65.79.79,0,0,1-.5.11.65.65,0,0,1-.45-.3,1.13,1.13,0,0,1-.06-1c.1-.29.24-.54.34-.8l.61-1.32a8.84,8.84,0,0,1,.6-1.19,7.79,7.79,0,0,1-.46,1.25l-.56,1.34c-.19.49-.6,1-.28,1.58a.44.44,0,0,0,.6.16l.06,0a1.9,1.9,0,0,0,.56-.57A5.49,5.49,0,0,0,294,123,2.86,2.86,0,0,1,294.55,121.83Z"/><path class="cls-11" d="M287.4,127.58c-.06,0,.24-1,.32-2.4s-.08-2.4,0-2.41a6.43,6.43,0,0,1,.22,2.43A6.12,6.12,0,0,1,287.4,127.58Z"/><path class="cls-3" d="M214.43,117.89a12,12,0,0,0,5.69,10.17,26,26,0,0,1,2.83,1.68,3.58,3.58,0,0,1,1.52,2.77c-.08,1.71-1.81,2.8-3.33,3.57a4.24,4.24,0,0,1-5.82,6.17,4,4,0,0,1-.28-.3,7.83,7.83,0,0,1-5.74,6.92,10.9,10.9,0,0,1-9.11-1.86,18.39,18.39,0,0,1-5.8-7.54"/><path class="cls-10" d="M206.64,147.81c-.28-1.61.38-8.37.38-8.37s6.21-.66,6.58-6.81,0-20.37,0-20.37l-11.3-5.52-12.44,9.42,1.88,30.78Z"/><path class="cls-3" d="M212.39,122.57a.79.79,0,1,1-.79-.78A.79.79,0,0,1,212.39,122.57Z"/><path class="cls-3" d="M213.15,121.71c-.09.11-.68-.38-1.52-.43s-1.49.36-1.59.25.07-.24.35-.43a2.12,2.12,0,0,1,1.27-.34,2.09,2.09,0,0,1,1.21.49C213.12,121.47,213.21,121.67,213.15,121.71Z"/><path class="cls-3" d="M203.26,122.57a.8.8,0,0,1-.74.85.78.78,0,0,1-.84-.74.8.8,0,0,1,.74-.85h0A.78.78,0,0,1,203.26,122.57Z"/><path class="cls-3" d="M203.76,121.71c-.11.11-.7-.38-1.54-.43s-1.49.36-1.57.25.06-.24.33-.43a2.12,2.12,0,0,1,1.27-.34,2.07,2.07,0,0,1,1.21.49C203.71,121.47,203.8,121.67,203.76,121.71Z"/><path class="cls-3" d="M206.81,128.83a6.43,6.43,0,0,1,1.38-.17c.21,0,.43,0,.48-.2a1.07,1.07,0,0,0-.11-.68L208,126c-.4-1.25-.75-2.38-1-3.21a5.64,5.64,0,0,1-.31-1.35,6.78,6.78,0,0,1,.53,1.28c.29.81.68,1.93,1,3.14.18.61.36,1.18.55,1.76a1.27,1.27,0,0,1,.07.88.7.7,0,0,1-.72.32A6.1,6.1,0,0,1,206.81,128.83Z"/><path class="cls-6" d="M204,129.69c-.86-.58,2.37,1.41,4.1,1.41a2.36,2.36,0,0,1-2.82.8C203.5,131.13,204,129.69,204,129.69Z"/><path class="cls-11" d="M207,139.4a15.32,15.32,0,0,1-8.15-2.76s1.84,4.52,8,4.27Z"/><path class="cls-3" d="M211,107.7c-6.11-6.34-10.3-5-12.7-5A19.22,19.22,0,0,0,185,110.39h0c-1.7,1.78-4.18,7.55-4.41,9.58a45.23,45.23,0,0,0,0,6.16c0,2.09-.49,4.27-2,5.63-1,.87-2.35,1.37-2.93,2.53a3.26,3.26,0,0,0,1.35,4,7.38,7.38,0,0,0,4.39.9,6.28,6.28,0,0,0,5,6.61,6,6,0,0,0,4.42-1.16,35.41,35.41,0,0,0,3.28,2.83q.38-13.46-.57-26.89c4.11-.72,11.51-2.94,12.76-9.52,1.64,3.75,4.13,5.79,7.44,8.63C213.79,119.63,217.11,114,211,107.7Z"/><path class="cls-3" d="M194.09,118.15a9.66,9.66,0,0,1,2.52,0,13.18,13.18,0,0,0,5.84-.69,5.5,5.5,0,0,0,2.44-2,7.07,7.07,0,0,0,1-2.42c.29-1.5.15-2.47.24-2.47a4.94,4.94,0,0,1,.15,2.53,6.71,6.71,0,0,1-.95,2.64,5.77,5.77,0,0,1-2.63,2.2,11.92,11.92,0,0,1-6.09.56A12.27,12.27,0,0,1,194.09,118.15Z"/><path class="cls-3" d="M178,133.23a4.75,4.75,0,0,0,1.05-.15,2.72,2.72,0,0,0,1.67-2,6.75,6.75,0,0,0-.75-4,14.53,14.53,0,0,1-.87-2.39,8.13,8.13,0,0,1-.18-2.78,11.54,11.54,0,0,1,1.84-5,18.87,18.87,0,0,1,2.78-3.27c.88-.85,1.64-1.48,2.16-1.9a4,4,0,0,1,.86-.61c.06.06-1,1-2.75,2.78a21.36,21.36,0,0,0-2.63,3.28,11.19,11.19,0,0,0-1.71,4.75,7.72,7.72,0,0,0,.14,2.58,17.58,17.58,0,0,0,.83,2.34,6.92,6.92,0,0,1,.66,4.27,2.92,2.92,0,0,1-2,2.09,2.21,2.21,0,0,1-.81,0A.78.78,0,0,1,178,133.23Z"/><path class="cls-3" d="M222.74,124.43a1.06,1.06,0,0,1,.19.73,2.31,2.31,0,0,1-1.05,1.81,3.15,3.15,0,0,1-3.09,0,6.55,6.55,0,0,1-2.6-2.72,16.79,16.79,0,0,1-2.16-6.37,8.64,8.64,0,0,1,0-2.78c.1,0,.12,1.05.42,2.73A19.13,19.13,0,0,0,216.7,124a6.23,6.23,0,0,0,2.37,2.54,2.8,2.8,0,0,0,2.65.08,2.15,2.15,0,0,0,1.05-1.49C222.79,124.7,222.7,124.44,222.74,124.43Z"/><path class="cls-3" d="M213.22,221.25s20.93,68.1,19.65,90.1-16.68,76.59-16.68,76.59Z"/><path class="cls-3" d="M183.62,209.65c-.46-.12-9.67,13.4-10,25a32.38,32.38,0,0,0,.12,3.41,43.35,43.35,0,0,0,2.9,11.86c7.79,19.64,15.8,42.9,15.94,48.24.37,16.36,3.57,91.55,3.57,91.55l22.6-1.6L218,298.22l-5.5-89.29Z"/><path class="cls-9" d="M195.94,209.27c.13,0,.19,2.51.19,7.07s-.21,11.17.09,19.31c.08,2,.16,4.19.34,6.39s.34,4.54.58,6.91c.5,4.77,1.18,9.85,2,15.18S201,275,201.8,280.87s1.45,11.86,1.8,18.08.28,12.3.4,18.17.23,11.51.38,16.92c.32,10.78.69,20.5,1.05,28.64l.71,19.31c.07,2.26.13,4,.17,5.23s0,1.83,0,1.83c-.05-1.48-.42-10.38-1.05-26.38-.33-8.16-.73-17.86-1-28.65-.16-5.39-.3-11-.39-16.92s0-12-.41-18.16-1-12.25-1.83-18-1.77-11.39-2.62-16.74-1.51-10.42-2-15.19c-.24-2.38-.44-4.69-.57-6.92s-.24-4.35-.33-6.39c-.28-8.16,0-14.77,0-19.33V211.1A8,8,0,0,0,195.94,209.27Z"/><rect class="cls-9" x="196.04" y="386.48" width="22.73" height="3.42"/><path class="cls-9" d="M197.48,210c-.07,0-.12-.23-.13-.53s0-.52.09-.52.12.23.13.52S197.53,210,197.48,210Z"/><path class="cls-9" d="M197.53,212.05c-.05,0-.12-.23-.12-.52s0-.53.1-.53.11.23.11.53S197.59,212.05,197.53,212.05Z"/><path class="cls-9" d="M197.59,214.14c-.05,0-.11-.23-.12-.52s0-.52.09-.52.11.23.13.52S197.65,214.14,197.59,214.14Z"/><path class="cls-9" d="M197.65,216.24c-.06,0-.11-.23-.12-.53s0-.52.09-.52.12.23.13.52S197.72,216.24,197.65,216.24Z"/><path class="cls-9" d="M197.72,218.33c-.07,0-.12-.23-.13-.52s0-.53.1-.53.11.23.12.53S197.78,218.33,197.72,218.33Z"/><path class="cls-9" d="M197.78,220.42c-.06,0-.12-.23-.13-.52s0-.52.1-.52.11.23.12.51S197.84,220.42,197.78,220.42Z"/><path class="cls-9" d="M197.84,222.52c-.06,0-.11-.23-.12-.53s0-.52.09-.52.12.23.13.51S197.89,222.51,197.84,222.52Z"/><path class="cls-9" d="M197.91,224.61c-.07,0-.13-.24-.13-.52s0-.53.09-.53.12.23.13.52S198,224.6,197.91,224.61Z"/><path class="cls-9" d="M198,226.69c-.05,0-.12-.23-.12-.51s0-.52.09-.53.12.24.12.52S198,226.69,198,226.69Z"/><path class="cls-9" d="M198,228.78c-.06,0-.11-.23-.13-.51s0-.52.1-.53.11.23.12.52S198.08,228.78,198,228.78Z"/><path class="cls-9" d="M198.08,230.88c-.06,0-.11-.23-.12-.52s0-.53.09-.53.12.23.13.52S198.15,230.88,198.08,230.88Z"/><path class="cls-9" d="M198.09,233c-.06,0-.1-.24-.11-.52s0-.53.11-.54.11.24.11.54S198.16,233,198.09,233Z"/><path class="cls-9" d="M198.12,235.07c-.06,0-.11-.23-.11-.52s0-.52.09-.52.12.23.12.52S198.19,235.07,198.12,235.07Z"/><path class="cls-9" d="M198.17,237.17a1.24,1.24,0,0,1-.12-.52c0-.28,0-.53.1-.53s.11.23.11.52S198.27,237.17,198.17,237.17Z"/><path class="cls-9" d="M198.27,239.27c-.06,0-.11-.23-.12-.52s0-.53.08-.54.13.24.14.53A1.42,1.42,0,0,1,198.27,239.27Z"/><path class="cls-9" d="M198.32,241.36s-.11-.23-.12-.52,0-.52.08-.52.12.23.14.51S198.39,241.35,198.32,241.36Z"/><path class="cls-9" d="M198.44,243.46c-.06,0-.12-.23-.14-.53s0-.52.09-.52.11.22.13.51S198.5,243.45,198.44,243.46Z"/><path class="cls-9" d="M198.57,245.54c-.06,0-.12-.22-.14-.51s0-.53.07-.54.13.23.15.53S198.64,245.54,198.57,245.54Z"/><path class="cls-9" d="M198.73,247.63c-.06,0-.12-.23-.14-.51s0-.52.06-.53.12.23.16.51S198.79,247.62,198.73,247.63Z"/><path class="cls-9" d="M198.92,249.72c-.06,0-.14-.22-.16-.52s0-.52.07-.52.12.22.14.51S199,249.72,198.92,249.72Z"/><path class="cls-9" d="M199.12,251.8c-.06,0-.13-.22-.16-.5a2.72,2.72,0,0,1,0-.54,1.2,1.2,0,0,1,.16.51C199.14,251.57,199.18,251.8,199.12,251.8Z"/><path class="cls-9" d="M199.32,253.88c-.06,0-.14-.22-.17-.5s0-.54,0-.54.14.22.17.51S199.41,253.88,199.32,253.88Z"/><path class="cls-9" d="M199.6,256c-.06,0-.14-.22-.18-.51a2,2,0,0,1,0-.53,1.22,1.22,0,0,1,.17.51C199.62,255.72,199.66,256,199.6,256Z"/><path class="cls-9" d="M199.87,258c-.06,0-.13-.22-.18-.51a2,2,0,0,1,0-.53,1.32,1.32,0,0,1,.18.5C199.91,257.79,199.94,258,199.87,258Z"/><path class="cls-9" d="M200.17,260.1c-.07,0-.15-.22-.19-.51a2,2,0,0,1,0-.53,1.54,1.54,0,0,1,.18.5C200.2,259.85,200.22,260.09,200.17,260.1Z"/><path class="cls-9" d="M200.47,262.16c-.05,0-.14-.21-.19-.5a1.55,1.55,0,0,1,0-.53,1.23,1.23,0,0,1,.19.49C200.51,261.91,200.53,262.15,200.47,262.16Z"/><path class="cls-9" d="M200.79,264.23s-.14-.22-.18-.5a1.68,1.68,0,0,1,0-.54,1.54,1.54,0,0,1,.18.51C200.85,264,200.86,264.22,200.79,264.23Z"/><path class="cls-9" d="M201.13,266.25s-.15-.21-.19-.5a2,2,0,0,1,0-.54,1.34,1.34,0,0,1,.2.51C201.19,266,201.19,266.25,201.13,266.25Z"/><path class="cls-9" d="M201.47,268.34c-.05,0-.14-.22-.18-.5a1.61,1.61,0,0,1,0-.53,1.32,1.32,0,0,1,.18.5C201.52,268.09,201.54,268.34,201.47,268.34Z"/><path class="cls-9" d="M201.83,270.44c-.06,0-.15-.22-.2-.51a1.61,1.61,0,0,1,0-.53,1.25,1.25,0,0,1,.2.5C201.88,270.2,201.88,270.44,201.83,270.44Z"/><path class="cls-9" d="M202.17,272.47c-.06,0-.14-.21-.18-.5a1.61,1.61,0,0,1,0-.53,1.45,1.45,0,0,1,.2.49C202.24,272.22,202.24,272.46,202.17,272.47Z"/><path class="cls-9" d="M202.52,274.53c-.05,0-.15-.22-.19-.5a2.07,2.07,0,0,1,0-.54,1.24,1.24,0,0,1,.19.5C202.56,274.28,202.58,274.52,202.52,274.53Z"/><path class="cls-9" d="M202.87,276.58c-.07,0-.15-.21-.2-.49a1.41,1.41,0,0,1,0-.54,1.34,1.34,0,0,1,.19.51C202.9,276.35,202.92,276.57,202.87,276.58Z"/><path class="cls-9" d="M203.19,278.64c-.06,0-.15-.21-.19-.49a2,2,0,0,1,0-.53,1.24,1.24,0,0,1,.19.49C203.24,278.39,203.25,278.63,203.19,278.64Z"/><path class="cls-9" d="M203.5,280.7c-.05,0-.13-.21-.17-.49a1.61,1.61,0,0,1,0-.53,1.23,1.23,0,0,1,.18.49C203.56,280.45,203.57,280.69,203.5,280.7Z"/><path class="cls-9" d="M203.81,282.78c-.07,0-.15-.22-.19-.51a2,2,0,0,1,0-.53,1.32,1.32,0,0,1,.18.5C203.84,282.52,203.86,282.76,203.81,282.78Z"/><path class="cls-9" d="M204.08,284.84c-.05,0-.14-.21-.17-.51a2.64,2.64,0,0,1,0-.53,1.15,1.15,0,0,1,.18.5C204.12,284.59,204.14,284.84,204.08,284.84Z"/><path class="cls-9" d="M204.34,286.91c-.06,0-.13-.22-.17-.5a2.76,2.76,0,0,1,0-.54,1.23,1.23,0,0,1,.17.52C204.37,286.68,204.4,286.91,204.34,286.91Z"/><path class="cls-9" d="M204.55,289c-.06,0-.14-.22-.17-.51s0-.52.06-.54.12.22.15.52S204.63,289,204.55,289Z"/><path class="cls-9" d="M204.79,291.06c-.06,0-.13-.22-.16-.5s0-.52.06-.53.13.22.15.51S204.85,291.06,204.79,291.06Z"/><path class="cls-9" d="M205,293.15c-.06,0-.13-.22-.16-.52s0-.52.07-.52.13.22.15.51S205,293.15,205,293.15Z"/><path class="cls-9" d="M205.15,295.24c-.07,0-.13-.23-.15-.52s0-.53.06-.53.13.22.15.52S205.2,295.23,205.15,295.24Z"/><path class="cls-9" d="M205.28,297.32c-.06,0-.12-.23-.13-.51s0-.52.07-.53.13.23.14.51S205.35,297.32,205.28,297.32Z"/><path class="cls-9" d="M205.4,299.4c-.05,0-.12-.23-.14-.51s0-.52.09-.53.12.23.13.51S205.46,299.39,205.4,299.4Z"/><path class="cls-9" d="M205.49,301.49a1.45,1.45,0,0,1-.12-.52c0-.28,0-.52.08-.53s.13.23.14.52S205.6,301.49,205.49,301.49Z"/><path class="cls-9" d="M205.6,303.58c-.06,0-.12-.23-.13-.52s0-.53.1-.53.11.23.12.52A1.52,1.52,0,0,1,205.6,303.58Z"/><path class="cls-9" d="M205.6,305.66a1.23,1.23,0,0,1-.12-.51c0-.28,0-.52.1-.53s.11.24.12.52S205.68,305.66,205.6,305.66Z"/><path class="cls-9" d="M205.65,307.76c-.05,0-.11-.23-.12-.53s0-.52.11-.52.11.24.11.52S205.71,307.76,205.65,307.76Z"/><path class="cls-9" d="M205.67,309.86c-.06,0-.11-.24-.11-.52s0-.53.1-.53.12.23.12.53S205.73,309.86,205.67,309.86Z"/><path class="cls-9" d="M205.69,312c-.06,0-.11-.24-.11-.52s0-.52.1-.52.11.23.11.51S205.74,312,205.69,312Z"/><path class="cls-9" d="M205.71,314.05c-.06,0-.11-.25-.11-.53s0-.52.1-.52.11.23.12.51A.84.84,0,0,1,205.71,314.05Z"/><path class="cls-9" d="M205.73,316.14s-.1-.24-.11-.52,0-.53.1-.53.12.23.12.51S205.8,316.13,205.73,316.14Z"/><path class="cls-9" d="M205.78,318.23c-.07,0-.12-.24-.13-.52s0-.53.1-.53.12.24.12.52S205.83,318.22,205.78,318.23Z"/><path class="cls-9" d="M205.81,320.31c-.07,0-.12-.23-.12-.51s0-.52.1-.53.11.24.12.52S205.87,320.31,205.81,320.31Z"/><path class="cls-9" d="M205.85,322.41c-.06,0-.12-.23-.12-.52s0-.52.1-.53.11.24.11.52S205.91,322.41,205.85,322.41Z"/><path class="cls-9" d="M205.89,324.5a1.57,1.57,0,0,1-.11-.51c0-.29,0-.53.09-.54s.11.24.12.53S206,324.5,205.89,324.5Z"/><path class="cls-9" d="M205.94,326.59c-.06,0-.11-.23-.11-.51s0-.53.09-.53.12.23.12.52S206,326.59,205.94,326.59Z"/><path class="cls-9" d="M206,328.69c-.06,0-.11-.23-.12-.52s0-.53.1-.53.12.23.12.52S206.06,328.69,206,328.69Z"/><path class="cls-9" d="M206.06,330.78c-.07,0-.12-.23-.13-.52s0-.53.1-.53.11.23.12.53S206.11,330.78,206.06,330.78Z"/><path class="cls-9" d="M206.11,332.87c-.06,0-.12-.23-.13-.52s0-.52.1-.52.11.23.12.52S206.17,332.87,206.11,332.87Z"/><path class="cls-9" d="M206.17,335c-.06,0-.11-.23-.12-.53s0-.52.09-.52.12.23.13.52S206.24,335,206.17,335Z"/><path class="cls-9" d="M206.24,337.06c-.06,0-.12-.23-.13-.52s0-.53.09-.53.12.23.13.53S206.3,337.06,206.24,337.06Z"/><path class="cls-9" d="M206.31,339.15c-.06,0-.12-.23-.13-.52s0-.53.1-.53.11.24.12.53S206.37,339.15,206.31,339.15Z"/><path class="cls-9" d="M206.38,341.24c-.06,0-.12-.23-.13-.52s0-.52.09-.52.12.23.13.51S206.43,341.24,206.38,341.24Z"/><path class="cls-9" d="M206.44,343.34c-.05,0-.11-.23-.12-.53s0-.52.09-.52.12.23.13.51S206.51,343.33,206.44,343.34Z"/><path class="cls-9" d="M206.53,345.42c-.06,0-.13-.23-.14-.51s0-.53.1-.53.11.23.12.52S206.58,345.42,206.53,345.42Z"/><path class="cls-9" d="M206.64,347.51c-.06,0-.11-.23-.12-.51s0-.52.08-.53.12.23.13.52A1.33,1.33,0,0,1,206.64,347.51Z"/><path class="cls-9" d="M206.64,349.61c-.06,0-.11-.23-.12-.52s0-.53.08-.53.13.23.14.52S206.74,349.61,206.64,349.61Z"/><path class="cls-9" d="M206.76,351.7c-.06,0-.13-.23-.14-.52s0-.53.1-.53.11.23.12.53S206.81,351.7,206.76,351.7Z"/><path class="cls-9" d="M206.83,353.79c-.05,0-.11-.23-.12-.52s0-.52.09-.52.12.23.13.52S206.89,353.79,206.83,353.79Z"/><path class="cls-9" d="M206.92,355.89c-.07,0-.12-.23-.13-.53s0-.52.08-.52.13.23.14.51S207,355.89,206.92,355.89Z"/><path class="cls-9" d="M207,358c-.06,0-.12-.23-.13-.52s0-.53.09-.53.11.23.12.51S207.06,358,207,358Z"/><path class="cls-9" d="M207.08,360.06c-.06,0-.11-.22-.12-.51s0-.53.08-.53.12.22.13.52S207.15,360.06,207.08,360.06Z"/><path class="cls-9" d="M207.17,362.15c-.07,0-.12-.23-.14-.51s0-.52.1-.53.11.23.12.52S207.23,362.15,207.17,362.15Z"/><path class="cls-9" d="M207.25,364.25c-.06,0-.12-.23-.14-.52s0-.53.1-.53.11.23.12.52S207.31,364.25,207.25,364.25Z"/><path class="cls-9" d="M207.33,366.34c-.06,0-.12-.23-.13-.52s0-.53.09-.53.12.23.13.53S207.39,366.34,207.33,366.34Z"/><path class="cls-9" d="M207.42,368.43c-.06,0-.13-.23-.14-.52s0-.52.1-.52.11.23.12.51S207.47,368.43,207.42,368.43Z"/><path class="cls-9" d="M207.5,370.53c-.06,0-.12-.23-.13-.53s0-.52.09-.52.12.23.13.51S207.55,370.52,207.5,370.53Z"/><path class="cls-9" d="M207.58,372.62c-.06,0-.12-.23-.13-.52s0-.53.08-.53.13.23.14.52S207.69,372.61,207.58,372.62Z"/><path class="cls-9" d="M207.69,374.7c-.06,0-.11-.23-.13-.51s0-.52.09-.53.12.23.13.52A1.33,1.33,0,0,1,207.69,374.7Z"/><path class="cls-9" d="M207.74,376.79c-.06,0-.12-.23-.13-.51s0-.52.09-.53.12.23.13.52S207.79,376.79,207.74,376.79Z"/><path class="cls-9" d="M207.82,378.89c-.07,0-.12-.23-.13-.51s0-.54.08-.54.13.23.14.52S207.88,378.89,207.82,378.89Z"/><path class="cls-9" d="M207.9,381c-.06,0-.13-.23-.14-.52s0-.53.1-.53.11.23.12.53S208,381,207.9,381Z"/><path class="cls-9" d="M208,383.07c-.06,0-.12-.23-.13-.52s0-.52.09-.52.12.23.13.52S208,383.07,208,383.07Z"/><path class="cls-9" d="M208.05,385.18c-.07,0-.13-.24-.13-.53s0-.53.08-.53.12.23.13.52S208.1,385.17,208.05,385.18Z"/><path class="cls-9" d="M208.11,387.27a1.35,1.35,0,0,1-.13-.52c0-.3,0-.53.1-.53s.11.23.12.52S208.17,387.27,208.11,387.27Z"/><path class="cls-9" d="M208.16,388.79c-.06,0-.11-.11-.11-.23s0-.24.1-.24.11.1.12.23S208.22,388.79,208.16,388.79Z"/><path class="cls-9" d="M214.14,232.85a1.14,1.14,0,0,1-1,.05,1.93,1.93,0,0,1-.92-.7,3.42,3.42,0,0,1-.49-1.46c-.18-2.24-.33-5.33-.52-8.75s-.33-6.36-.45-8.75l-.11-2.65v-.73a1,1,0,0,1,0-.25.53.53,0,0,1,0,.25,2.73,2.73,0,0,0,.07.73c.05.75.11,1.63.17,2.64.14,2.39.32,5.41.52,8.75s.33,6.35.46,8.74a3,3,0,0,0,.44,1.4,1.72,1.72,0,0,0,.84.69A1.5,1.5,0,0,0,214.14,232.85Z"/><path class="cls-9" d="M176.49,248.92a3.78,3.78,0,0,0,.83-.24,3.34,3.34,0,0,0,1.54-1.71,8.08,8.08,0,0,0,.36-3.45,34.74,34.74,0,0,0-.42-4.31,37.44,37.44,0,0,0-2-7.43l.08.05-2.46.41-.68.09h-.23a.86.86,0,0,1,.23-.06l.66-.15,2.46-.47h.06v.06a33.9,33.9,0,0,1,2.09,7.46,34.87,34.87,0,0,1,.42,4.33A8,8,0,0,1,179,247a3.26,3.26,0,0,1-1.64,1.71A1.76,1.76,0,0,1,176.49,248.92Z"/><path class="cls-9" d="M177.65,234.92a9,9,0,0,1-2,.56,10.71,10.71,0,0,1-2.1.35,10.12,10.12,0,0,1,2-.57A11.28,11.28,0,0,1,177.65,234.92Z"/><path class="cls-9" d="M291,131.82l-11.72-9.59C247.43,151,206.35,147.7,206.35,147.7v.07c-1.84-.3-11.51-1.85-14.71-1.91-2.5,0-8.29-.5-12.38,3.36h0c-.11.09-.21.19-.31.29-3.7,3.62-40.81,40.17-36.86,49.19,4.19,9.53,39.4,30.23,39.4,30.23L190,213.42s-2.65-1.74-6.27-4.18l28.78-.75,1.26-21.55s4.92-5.49,4.92-9.41c0-2.75-1.52-7.33-3.46-12C260.62,161.79,291,131.82,291,131.82ZM163.45,193.57c.34-1.13,7.72-9.2,14.37-16.32,2.3,14.08,5.43,30.3,5.74,31.9-8-5.43-20.54-14.18-20.11-15.59Z"/><path class="cls-6" d="M217,182.28h-1a11.48,11.48,0,0,1-3-.37,5.6,5.6,0,0,1-3.69-2.95,3.39,3.39,0,0,1,0-3A3,3,0,0,1,212,174.2a3.13,3.13,0,0,1,2.64,2.46,4.62,4.62,0,0,1-1.05,3.86,9.13,9.13,0,0,1-8,3.28,9.48,9.48,0,0,1-4.57-1.54,7.19,7.19,0,0,1-3-4,4.06,4.06,0,0,1,.15-2.62,3.52,3.52,0,0,1,1.94-1.83,2.59,2.59,0,0,1,2.66.34,2.85,2.85,0,0,1,.94,2.56,5.68,5.68,0,0,1-.91,2.58,8.4,8.4,0,0,1-1.86,2,10.12,10.12,0,0,1-4.81,2,9.59,9.59,0,0,1-8.93-3.29,5,5,0,0,1-1-2.14,3.75,3.75,0,0,1,.28-2.29,2.81,2.81,0,0,1,1.65-1.5,3,3,0,0,1,2.17.19,3.77,3.77,0,0,1,2.23,3.26,4.9,4.9,0,0,1-1.44,3.41,7.45,7.45,0,0,1-5.85,2.24,9.14,9.14,0,0,1-4.56-1.46,8,8,0,0,1-2.2-2.09,7,7,0,0,1-.54-.91,9.32,9.32,0,0,0,.6.86,7.78,7.78,0,0,0,2.21,2,9,9,0,0,0,4.5,1.4,7.37,7.37,0,0,0,5.67-2.18,4.73,4.73,0,0,0,1.35-3.26,3.53,3.53,0,0,0-2.1-3,2.72,2.72,0,0,0-2-.18,2.51,2.51,0,0,0-1.48,1.36,3.53,3.53,0,0,0-.26,2.1,4.77,4.77,0,0,0,.94,2,9.29,9.29,0,0,0,8.64,3.13,9.69,9.69,0,0,0,4.66-1.91,8.06,8.06,0,0,0,1.78-1.86,5.48,5.48,0,0,0,.87-2.44,2.57,2.57,0,0,0-.83-2.28,2.26,2.26,0,0,0-2.33-.29,3.3,3.3,0,0,0-1.77,1.66,3.86,3.86,0,0,0-.13,2.42,6.85,6.85,0,0,0,2.88,3.8,9.22,9.22,0,0,0,4.42,1.52,8.87,8.87,0,0,0,7.75-3.14,4.39,4.39,0,0,0,1-3.63,2.88,2.88,0,0,0-2.42-2.29,2.78,2.78,0,0,0-2.57,1.64,3.18,3.18,0,0,0,0,2.82,5.47,5.47,0,0,0,3.55,2.9,12.14,12.14,0,0,0,3,.43h1Z"/><path class="cls-6" d="M212.92,202.15l-.52.36c-.35.22-.85.55-1.52,1a12.72,12.72,0,0,1-2.56,1.27,8.6,8.6,0,0,1-3.77.33,7.15,7.15,0,0,1-4.25-1.69,4,4,0,0,1-1.18-2.32,2.72,2.72,0,0,1,1-2.5,2.44,2.44,0,0,1,1.37-.52,2.09,2.09,0,0,1,1.43.5,3,3,0,0,1,.89,2.85,4.8,4.8,0,0,1-1.72,2.6,9.9,9.9,0,0,1-2.76,1.6,10.69,10.69,0,0,1-6.23.39,7.71,7.71,0,0,1-4.83-3.14,3,3,0,0,1-.26-2.72,2.69,2.69,0,0,1,2.09-1.52,1.69,1.69,0,0,1,1.24.36,1.92,1.92,0,0,1,.64,1,2.65,2.65,0,0,1-.44,2.18,6.44,6.44,0,0,1-3.14,2.16,7.92,7.92,0,0,1-2.82.43,7.67,7.67,0,0,1-1.79-.27l-.6-.21a10.15,10.15,0,0,0,2.39.35,7.64,7.64,0,0,0,2.76-.48,6.27,6.27,0,0,0,3-2.09,2.4,2.4,0,0,0,.4-2,1.48,1.48,0,0,0-1.61-1.18,2.41,2.41,0,0,0-1.85,1.37,2.67,2.67,0,0,0,.26,2.45,7.43,7.43,0,0,0,4.66,3,10.39,10.39,0,0,0,6-.38,9.51,9.51,0,0,0,2.67-1.55,4.41,4.41,0,0,0,1.59-2.42,2.66,2.66,0,0,0-.78-2.56,1.9,1.9,0,0,0-2.42,0,2.41,2.41,0,0,0-1,2.24,3.69,3.69,0,0,0,1.05,2.15,6.88,6.88,0,0,0,4.08,1.65,8.34,8.34,0,0,0,3.68-.28,14,14,0,0,0,2.57-1.19l1.54-.92C212.7,202.24,212.92,202.15,212.92,202.15Z"/><path class="cls-6" d="M228.62,146.33a4.22,4.22,0,0,1,1.16.8,5.56,5.56,0,0,1,1.73,3.42,5.68,5.68,0,0,1-.33,2.65,6,6,0,0,1-1.82,2.5,6.59,6.59,0,0,1-3.14,1.37,5.56,5.56,0,0,1-1.82,0,2.58,2.58,0,0,1-1.67-.92,1.26,1.26,0,0,1-.18-1.05,1.61,1.61,0,0,1,.59-.82,3,3,0,0,1,1.78-.51,4.31,4.31,0,0,1,3.14,1.38,4.58,4.58,0,0,1,1.2,2.83,5.46,5.46,0,0,1-.46,2.64,6.42,6.42,0,0,1-2.58,2.85,5.11,5.11,0,0,1-.93.48,2.06,2.06,0,0,1-.35.12,9.43,9.43,0,0,0,1.21-.7,6.55,6.55,0,0,0,2.47-2.82A5.3,5.3,0,0,0,229,158a4.35,4.35,0,0,0-1.15-2.66A4.08,4.08,0,0,0,225,154.1a2.69,2.69,0,0,0-1.58.47,1,1,0,0,0-.34,1.38,2.26,2.26,0,0,0,1.46.79,5.58,5.58,0,0,0,1.73,0,6.34,6.34,0,0,0,3-1.29,5.5,5.5,0,0,0,1-7.72,4.5,4.5,0,0,0-.46-.52A13.54,13.54,0,0,0,228.62,146.33Z"/><path class="cls-6" d="M244,142.6a2,2,0,0,1,.52.64,1.76,1.76,0,0,1,.16,1,3.23,3.23,0,0,1-.42,1.21,11.63,11.63,0,0,1-1.91,2.67,20.44,20.44,0,0,0-2.58,3,11.45,11.45,0,0,0-1.71,6.82,18.21,18.21,0,0,0,.54,2.93,3.32,3.32,0,0,1-.32-.75,9.88,9.88,0,0,1-.45-2.16,11.11,11.11,0,0,1,1.67-7,19,19,0,0,1,2.63-3A12,12,0,0,0,244,145.3a3.08,3.08,0,0,0,.45-1.13,1.66,1.66,0,0,0-.1-.88C244.13,142.83,243.92,142.62,244,142.6Z"/><path class="cls-6" d="M255.5,155a3.53,3.53,0,0,1-1.56.33,4.56,4.56,0,0,1-3.77-2A6.8,6.8,0,0,1,250,147a7.53,7.53,0,0,1,2.31-3.07,4.55,4.55,0,0,1,4-.82,3.13,3.13,0,0,1,2.33,3.22,2.47,2.47,0,0,1-.87,1.81,2.92,2.92,0,0,1-1.81.66,4.43,4.43,0,0,1-3.23-1.25,5.89,5.89,0,0,1-1.57-2.58,6.33,6.33,0,0,1,.26-4.31,4.34,4.34,0,0,1,.9-1.33,10.34,10.34,0,0,0-.77,1.38,6.22,6.22,0,0,0-.17,4.19,5.59,5.59,0,0,0,1.54,2.45,4.19,4.19,0,0,0,3,1.16,2.62,2.62,0,0,0,1.63-.6,2.2,2.2,0,0,0,.75-1.59,2.87,2.87,0,0,0-2.09-2.9,4.28,4.28,0,0,0-3.72.76,7.31,7.31,0,0,0-2.23,2.93,6.58,6.58,0,0,0,.13,6.07,4.41,4.41,0,0,0,3.57,2A5.87,5.87,0,0,0,255.5,155Z"/><path class="cls-6" d="M263.77,133.81a2.77,2.77,0,0,1,.64.26,8.27,8.27,0,0,1,1.57,1.05,7.76,7.76,0,0,1,1.8,2.15,10.31,10.31,0,0,1,1.18,3.22,10.14,10.14,0,0,1-.69,6.12,9.44,9.44,0,0,1-.94,1.63,2.87,2.87,0,0,1-.45.53,20,20,0,0,0,1.17-2.25,10.42,10.42,0,0,0,.6-6,11.35,11.35,0,0,0-1.13-3.14,8.72,8.72,0,0,0-1.68-2.09A20.27,20.27,0,0,0,263.77,133.81Z"/><path class="cls-6" d="M281,140.13a4.11,4.11,0,0,1-1.33.32,4.85,4.85,0,0,1-1.61-.15,3.94,3.94,0,0,1-1.81-1.15,6.43,6.43,0,0,1-1.61-5.23,4.08,4.08,0,0,1,1.7-2.82,3.14,3.14,0,0,1,1.7-.56,2.57,2.57,0,0,1,1.74.59,2.42,2.42,0,0,1,.92,1.6,2.29,2.29,0,0,1-.52,1.72,3.42,3.42,0,0,1-3.07,1.12,6.14,6.14,0,0,1-4.61-2.88,3.38,3.38,0,0,1-.62-2.09,4.71,4.71,0,0,1,.43-1.56c.18-.41.34-.71.44-.92a1.49,1.49,0,0,1,.18-.3,2.19,2.19,0,0,1-.12.33c-.11.27-.24.59-.37.93a4.47,4.47,0,0,0-.38,1.52,3.28,3.28,0,0,0,.63,1.93,6.08,6.08,0,0,0,4.45,2.71,3.15,3.15,0,0,0,2.79-1.05,2,2,0,0,0,.46-1.48,2.23,2.23,0,0,0-.82-1.39,2.54,2.54,0,0,0-3,0,3.73,3.73,0,0,0-1.57,2.6,6.21,6.21,0,0,0,1.46,5,4,4,0,0,0,3.25,1.33A12.15,12.15,0,0,0,281,140.13Z"/><path class="cls-6" d="M213,192a4.81,4.81,0,0,1-1,.87,9.27,9.27,0,0,1-3.25,1.46,16.16,16.16,0,0,1-5.28.3,44,44,0,0,1-6.35-1.26,31.7,31.7,0,0,0-6.28-1,13.28,13.28,0,0,0-5.19.72,9.36,9.36,0,0,0-3,1.76c-.61.57-.88.95-.91.93a5.53,5.53,0,0,1,.82-1,8.87,8.87,0,0,1,3-1.9,13.3,13.3,0,0,1,5.23-.8,32.15,32.15,0,0,1,6.39,1,46.15,46.15,0,0,0,6.27,1.28,16.17,16.17,0,0,0,5.24-.23A10.31,10.31,0,0,0,213,192Z"/><path class="cls-6" d="M168.72,159.92a2.54,2.54,0,0,1,1.95-.37,5.25,5.25,0,0,1,2.15,1c.76.54,1.52,1.25,2.44,2s1.77,1.67,2.82,2.5a9.09,9.09,0,0,0,3.87,1.72,17.65,17.65,0,0,0,9.62-1.38c3.26-1.31,6.28-2.89,9.24-3.69a15.85,15.85,0,0,1,4.33-.63,12.86,12.86,0,0,1,3.74.68,8.38,8.38,0,0,1,4.38,3.22,4,4,0,0,1,.43.75,3,3,0,0,1,.24.59,2.85,2.85,0,0,1,.14.5,10.61,10.61,0,0,0-.92-1.77,8.39,8.39,0,0,0-4.34-3.08,12.77,12.77,0,0,0-3.67-.61,15.54,15.54,0,0,0-4.24.63c-2.94.81-5.93,2.39-9.21,3.71a17.82,17.82,0,0,1-9.8,1.37,9.15,9.15,0,0,1-4-1.8c-1-.86-1.94-1.79-2.81-2.54s-1.67-1.45-2.39-2a5.33,5.33,0,0,0-2.1-1.05A3.34,3.34,0,0,0,168.72,159.92Z"/><path class="cls-6" d="M216.27,147.68a4.9,4.9,0,0,1,.16.85,7.55,7.55,0,0,1-.16,2.46,8.37,8.37,0,0,1-1.74,3.47,7.37,7.37,0,0,1-4.41,2.56,8.35,8.35,0,0,1-6-1.32,6.5,6.5,0,0,1-2.32-2.64,1.81,1.81,0,0,1,.2-1.86,2.38,2.38,0,0,1,1.71-.88,2.35,2.35,0,0,1,1.89.61,3,3,0,0,1,.8,1.86,4.2,4.2,0,0,1-1.7,3.64,10.7,10.7,0,0,1-3.85,1.76,13,13,0,0,1-4.3.54,7.27,7.27,0,0,1-4.07-1.52,4.82,4.82,0,0,1-1.89-3.72,3.83,3.83,0,0,1,1.9-3.52,3.47,3.47,0,0,1,3.81.42,3.14,3.14,0,0,1,.6,3.57,4.86,4.86,0,0,1-2.5,2.45,11.37,11.37,0,0,1-6.18.79A13.19,13.19,0,0,1,180.3,153a11.65,11.65,0,0,1-1.44-2c-.27-.5-.4-.77-.4-.77a15.35,15.35,0,0,0,1.94,2.66,13.18,13.18,0,0,0,7.82,4,11.21,11.21,0,0,0,6-.81,4.59,4.59,0,0,0,2.36-2.31,2.85,2.85,0,0,0-.55-3.24,3.13,3.13,0,0,0-3.45-.36,3.48,3.48,0,0,0-1.73,3.22,4.51,4.51,0,0,0,1.78,3.49,6.87,6.87,0,0,0,3.88,1.44,12.6,12.6,0,0,0,4.19-.53,10.36,10.36,0,0,0,3.73-1.7,3.93,3.93,0,0,0,1.59-3.35,2.64,2.64,0,0,0-.71-1.67,2.06,2.06,0,0,0-1.64-.54,2.17,2.17,0,0,0-1.51.76,1.55,1.55,0,0,0-.16,1.58,6.21,6.21,0,0,0,2.2,2.51,8.1,8.1,0,0,0,5.84,1.33,7.21,7.21,0,0,0,4.32-2.45,8.52,8.52,0,0,0,1.75-3.39A8.36,8.36,0,0,0,216.27,147.68Z"/><path class="cls-6" d="M162.87,166a2.63,2.63,0,0,1,.42-.17c.27-.1.69-.24,1.22-.38a7.25,7.25,0,0,1,4.69.19,7,7,0,0,1,2.7,1.88,5.6,5.6,0,0,1,1.42,3.47,5.14,5.14,0,0,1-5,5.28,7.09,7.09,0,0,1-.79,0,3.76,3.76,0,0,1-2.09-.95,2.21,2.21,0,0,1-.68-2.09A3.31,3.31,0,0,1,166,171.4a5,5,0,0,1,1.88-.85,7.12,7.12,0,0,1,8.84,5.86,5,5,0,0,1,0,1.73,10.86,10.86,0,0,0-.14-1.71,7.34,7.34,0,0,0-2.23-4,7,7,0,0,0-6.42-1.55,4.81,4.81,0,0,0-1.76.82,2.83,2.83,0,0,0-1.15,1.58,1.91,1.91,0,0,0,.59,1.83,3.5,3.5,0,0,0,1.94.86,4.83,4.83,0,0,0,5.4-4.19,5.48,5.48,0,0,0,0-.7,5.23,5.23,0,0,0-1.33-3.31,6.73,6.73,0,0,0-2.57-1.84,7.19,7.19,0,0,0-4.58-.28c-.54.12-.95.24-1.23.32Z"/><path class="cls-6" d="M167.36,188.67a1.73,1.73,0,0,0,.09-.9,5.57,5.57,0,0,0-1-2.29,3.4,3.4,0,0,0-3.25-1.3c-1.4,0-2.92.68-4.64.55a5.6,5.6,0,0,1-5.33-5.78,4.28,4.28,0,0,1,.66-2.49,2,2,0,0,1,.66-.68,3.26,3.26,0,0,0-.56.74,4.47,4.47,0,0,0-.53,2.43,5.38,5.38,0,0,0,5.12,5.45c1.62.13,3.14-.47,4.61-.52a4.79,4.79,0,0,1,2.09.3,3,3,0,0,1,1.4,1.16,5.34,5.34,0,0,1,.94,2.42A1.18,1.18,0,0,1,167.36,188.67Z"/><path class="cls-6" d="M155.8,212.05a4.27,4.27,0,0,0,1.44-.38,2.64,2.64,0,0,0,1.17-1.21,4.21,4.21,0,0,0,.22-2.25,14.94,14.94,0,0,0-.68-2.73,8.5,8.5,0,0,0-1.39-2.87,3.16,3.16,0,0,0-3.06-1.12,1.9,1.9,0,0,0-1.28,1.13,2.68,2.68,0,0,0,0,1.81,3,3,0,0,0,2.9,1.86,5.1,5.1,0,0,0,3.23-1.19,14.92,14.92,0,0,0,3.65-4.76,11.61,11.61,0,0,0,1.18-3.89c.1-1,0-1.51.07-1.51a5.94,5.94,0,0,1,.06,1.52,11.2,11.2,0,0,1-1.1,4,14.58,14.58,0,0,1-3.69,4.9,5.24,5.24,0,0,1-3.4,1.28,3.85,3.85,0,0,1-1.9-.5,2.8,2.8,0,0,1-1.3-1.57,2.87,2.87,0,0,1,0-2,2.21,2.21,0,0,1,1.49-1.32,3.41,3.41,0,0,1,3.37,1.24,8.49,8.49,0,0,1,1.42,3,15.8,15.8,0,0,1,.65,2.8,4.48,4.48,0,0,1-.28,2.35,2.79,2.79,0,0,1-1.29,1.25,3,3,0,0,1-1.1.27A1.61,1.61,0,0,1,155.8,212.05Z"/><path class="cls-6" d="M169.55,220.11a3.2,3.2,0,0,0,.81-.2,2.92,2.92,0,0,0,1.49-1.62,4.53,4.53,0,0,0-.16-3.28c-.43-1.2-1.2-2.42-1.67-3.88a5.4,5.4,0,0,1-.29-2.22,4.15,4.15,0,0,1,.76-2,5,5,0,0,1,2.91-1.89,6.82,6.82,0,0,1,2.34-.14,3.13,3.13,0,0,1,.85.17,10,10,0,0,0-3.14.2,4.82,4.82,0,0,0-2.72,1.84,3.63,3.63,0,0,0-.69,1.81,5.19,5.19,0,0,0,.28,2.1c.44,1.4,1.21,2.62,1.64,3.87a4.6,4.6,0,0,1,.09,3.46A3,3,0,0,1,170.4,220,1.54,1.54,0,0,1,169.55,220.11Z"/><path class="cls-3" d="M176,179.18a9.51,9.51,0,0,1,1.05-1.32c.66-.82,1.65-2,2.9-3.41s2.73-3.14,4.32-5c.79-1,1.61-2,2.44-3.06a20.09,20.09,0,0,0,2.27-3.49,17.55,17.55,0,0,0,2.09-7.66,8.57,8.57,0,0,0-2.17-5.93,6.93,6.93,0,0,0-3.76-2.09,14.55,14.55,0,0,0-1.61-.13A1.54,1.54,0,0,0,184,147a4.23,4.23,0,0,1,1.23,0,7,7,0,0,1,4,2,8.9,8.9,0,0,1,2.39,6.2,17.54,17.54,0,0,1-2.09,7.92,19.7,19.7,0,0,1-2.32,3.55c-.84,1-1.68,2.1-2.48,3.06-1.62,1.9-3.14,3.57-4.43,5l-3,3.3A11.43,11.43,0,0,1,176,179.18Z"/><path class="cls-3" d="M164.33,193.57a14.15,14.15,0,0,1-3.62,1.37,13.56,13.56,0,0,1-3.78.85,13.92,13.92,0,0,1,3.62-1.37A13.72,13.72,0,0,1,164.33,193.57Z"/><path class="cls-3" d="M163.86,193.43c.09.14-1.16.91-2.35,2.22s-1.89,2.6-2,2.52a7.08,7.08,0,0,1,4.38-4.74Z"/><path class="cls-3" d="M216.59,168.61a10.07,10.07,0,0,1-1.22-2.17,54.28,54.28,0,0,1-2.28-5.52,50.18,50.18,0,0,1-1.67-5.74,9.17,9.17,0,0,1-.41-2.44,12.92,12.92,0,0,1,.77,2.35c.44,1.45,1.05,3.46,1.82,5.65s1.55,4.19,2.1,5.55A13.55,13.55,0,0,1,216.59,168.61Z"/><path class="cls-3" d="M205.52,178.64a6.32,6.32,0,0,1-1.37,2.09,14,14,0,0,1-11,4.75,6.66,6.66,0,0,1-2.49-.46c0-.1,1,.09,2.5.07a15.13,15.13,0,0,0,10.69-4.62C204.93,179.39,205.44,178.58,205.52,178.64Z"/><path class="cls-10" d="M198.27,230.35s-7.23,1.57-8.19.78,1.38-1.65,1.38-1.65-2.09.25-2.09-.51a1.82,1.82,0,0,1,.75-1.28Z"/><path class="cls-10" d="M188.47,216.32s10.16,4.58,10.28,4.94.44,7.6-.52,9.09-14.3-5.8-14.3-5.8Z"/><path class="cls-11" d="M196,228.66a1.46,1.46,0,0,1-.51,0l-1.38-.18a28.59,28.59,0,0,1-4.5-1,13.6,13.6,0,0,1-4.19-2l-1.15-.8c-.27-.18-.42-.29-.41-.31a3.25,3.25,0,0,1,.45.25l1.19.72a15,15,0,0,0,4.13,1.93,42.29,42.29,0,0,0,4.45,1.05l1.38.24A2.48,2.48,0,0,1,196,228.66Z"/><path class="cls-11" d="M195.94,228.84a8.21,8.21,0,0,1-2.34.59,8.79,8.79,0,0,1-2.4.13c0-.06,1-.15,2.37-.35S195.92,228.78,195.94,228.84Z"/></g></svg>