<svg id="Layer_1" data-name="Layer 1" xmlns="http://www.w3.org/2000/svg" xmlns:xlink="http://www.w3.org/1999/xlink" viewBox="0 0 730.27 240.91"><defs><style>.cls-1{fill:#8fbaff;opacity:0.5;}.cls-2{fill:url(#linear-gradient);}.cls-3{fill:url(#linear-gradient-2);}.cls-4{fill:url(#linear-gradient-3);}.cls-5{fill:url(#linear-gradient-4);}.cls-6{fill:url(#linear-gradient-5);}.cls-7{isolation:isolate;}.cls-8{fill:#3d3b6c;}</style><linearGradient id="linear-gradient" x1="-381.36" y1="590.45" x2="-381.04" y2="617.94" gradientTransform="translate(-58.66 -613.83) rotate(-45)" gradientUnits="userSpaceOnUse"><stop offset="0" stop-color="#4356ff"/><stop offset="0.25" stop-color="#4353fc"/><stop offset="0.44" stop-color="#414bf2"/><stop offset="0.62" stop-color="#3f3ce2"/><stop offset="0.78" stop-color="#3c27ca"/><stop offset="0.94" stop-color="#390dac"/><stop offset="1" stop-color="#37009e"/></linearGradient><linearGradient id="linear-gradient-2" x1="1610.23" y1="614.55" x2="1610.87" y2="646.71" gradientTransform="translate(1719.03 -535.15) rotate(135)" xlink:href="#linear-gradient"/><linearGradient id="linear-gradient-3" x1="-426.52" y1="608.49" x2="-403.92" y2="631.1" xlink:href="#linear-gradient"/><linearGradient id="linear-gradient-4" x1="1565.03" y1="634.98" x2="1587.77" y2="657.74" gradientTransform="translate(1719.03 -535.15) rotate(135)" xlink:href="#linear-gradient"/><linearGradient id="linear-gradient-5" x1="82.01" y1="120.21" x2="151.25" y2="120.21" gradientUnits="userSpaceOnUse"><stop offset="0" stop-color="#414af4"/><stop offset="0.14" stop-color="#4156f7"/><stop offset="0.38" stop-color="#4376fd"/><stop offset="0.43" stop-color="#437dff"/><stop offset="0.5" stop-color="#4383ff"/><stop offset="1" stop-color="#4356ff"/></linearGradient></defs><rect class="cls-1" x="66.04" y="69.95" width="101" height="101" rx="7.04" transform="translate(-51.04 117.68) rotate(-45)"/><path class="cls-2" d="M82.36,115.65l2.44-2.44a15.58,15.58,0,0,1,21.7-.31s0-.08-.08-.11L93.91,100.27l25.85-25.85a15.59,15.59,0,0,0,0-22.05l-2.44-2.44a1.2,1.2,0,0,0-1.68,0L78.76,86.81,66.14,99.43h0a1.2,1.2,0,0,0,0,1.68h0l12.62,12.62,13.32,13.31h0l-9.72-9.72A1.2,1.2,0,0,1,82.36,115.65Z"/><path class="cls-3" d="M167.29,139.44h0l-12.63-12.62L141.35,113.5a1.07,1.07,0,0,0-.25-.16l9.8,9.8a1.18,1.18,0,0,1,0,1.67l-2.44,2.45a15.57,15.57,0,0,1-21.3.66l12.36,12.36L113.31,166.5a15.58,15.58,0,0,0,0,22l2.44,2.44a1.17,1.17,0,0,0,1.67,0l37.25-37.24,12.62-12.62h0A1.2,1.2,0,0,0,167.29,139.44Z"/><path class="cls-4" d="M93.85,127.05l12.57-12.57a1.18,1.18,0,0,0,.08-1.58,15.58,15.58,0,0,0-21.7.31l-2.44,2.44a1.2,1.2,0,0,0,0,1.68l9.72,9.72A1.25,1.25,0,0,0,93.85,127.05Z"/><path class="cls-5" d="M148.46,127.26l2.44-2.45a1.18,1.18,0,0,0,0-1.67l-9.8-9.8a1.24,1.24,0,0,0-1.52.16L127,126.08a1.19,1.19,0,0,0,0,1.69l.15.15A15.57,15.57,0,0,0,148.46,127.26Z"/><path class="cls-6" d="M150.9,123.14l-9.8-9.8L126.62,98.85a1.45,1.45,0,0,0-.26-.17l0,0a.33.33,0,0,0-.13-.07,1.49,1.49,0,0,0-.7-.18H107.88a1.1,1.1,0,0,0-1.1,1.1v13.64l-.28-.25a15.58,15.58,0,0,0-21.7.31l-2.44,2.44a1.2,1.2,0,0,0,0,1.68l9.72,9.72,14.58,14.59a1.25,1.25,0,0,0,.58.3.83.83,0,0,0,.32.07h18.35a1.11,1.11,0,0,0,1.1-1.1V127.79s.1.08.15.13a15.57,15.57,0,0,0,21.3-.66l2.44-2.45A1.18,1.18,0,0,0,150.9,123.14Z"/><g id="Dimentrix" class="cls-7"><g class="cls-7"><path class="cls-8" d="M216.58,85h23.67a67.67,67.67,0,0,1,16.34,1.92,37.4,37.4,0,0,1,13.5,6.22,30.44,30.44,0,0,1,9.16,11.18q3.39,6.89,3.39,16.69a34.11,34.11,0,0,1-3.29,15.33,32.89,32.89,0,0,1-8.85,11.13,39.19,39.19,0,0,1-12.85,6.82,49.67,49.67,0,0,1-15.28,2.33H216.58ZM232.36,142h8.19a44.27,44.27,0,0,0,10.17-1.11,21.62,21.62,0,0,0,8.14-3.69,17.8,17.8,0,0,0,5.42-6.78,24.12,24.12,0,0,0,2-10.27,20.06,20.06,0,0,0-2-9.15,18.36,18.36,0,0,0-5.32-6.43,23.25,23.25,0,0,0-7.84-3.79,34.91,34.91,0,0,0-9.46-1.26h-9.3Z"/><path class="cls-8" d="M290.42,91.93A8.81,8.81,0,1,1,293,98.15,8.51,8.51,0,0,1,290.42,91.93Zm1.22,15.48h15.17v49.16H291.64Z"/><path class="cls-8" d="M317.74,107.41h14.57v6.67h.2a12.32,12.32,0,0,1,2-2.83,14.75,14.75,0,0,1,3.14-2.53,17.7,17.7,0,0,1,4.15-1.82,17.31,17.31,0,0,1,5.05-.71,19.17,19.17,0,0,1,9.16,2.13,13.45,13.45,0,0,1,6,6.67,16.39,16.39,0,0,1,6.37-6.77,19.17,19.17,0,0,1,9.21-2,18.81,18.81,0,0,1,8.34,1.67,13.7,13.7,0,0,1,5.37,4.55,19.35,19.35,0,0,1,2.83,6.78,38.91,38.91,0,0,1,.86,8.35v29H379.85V127.94a11.52,11.52,0,0,0-1.46-5.92q-1.47-2.47-5.21-2.47a9.92,9.92,0,0,0-4.4.86,7.26,7.26,0,0,0-2.84,2.37,10,10,0,0,0-1.51,3.54,19,19,0,0,0-.46,4.25v26H348.8v-26c0-.87,0-1.95-.1-3.23a13.28,13.28,0,0,0-.71-3.65,7.07,7.07,0,0,0-2-2.93,5.82,5.82,0,0,0-4-1.21,9.38,9.38,0,0,0-4.76,1.06,7.26,7.26,0,0,0-2.78,2.83,11.52,11.52,0,0,0-1.26,4,33.11,33.11,0,0,0-.31,4.65v24.48H317.74Z"/><path class="cls-8" d="M452.29,148.07a24.22,24.22,0,0,1-9.21,7.19,27.66,27.66,0,0,1-11.53,2.53A30.79,30.79,0,0,1,420.88,156a25.43,25.43,0,0,1-8.7-5.21,24.28,24.28,0,0,1-5.82-8.14,27.54,27.54,0,0,1,0-21.24,24.42,24.42,0,0,1,5.82-8.15,25.74,25.74,0,0,1,8.7-5.21,31,31,0,0,1,10.67-1.82,24.39,24.39,0,0,1,9.56,1.82,20,20,0,0,1,7.28,5.21,23.78,23.78,0,0,1,4.61,8.15A33.07,33.07,0,0,1,454.62,132v4.75H419.41a12,12,0,0,0,3.94,6.93,11.18,11.18,0,0,0,7.49,2.58,11.32,11.32,0,0,0,6.32-1.67,17,17,0,0,0,4.51-4.3Zm-12.85-21.65a8.78,8.78,0,0,0-2.53-6.57,9,9,0,0,0-6.78-2.73,11.4,11.4,0,0,0-4.45.81,11.24,11.24,0,0,0-3.29,2.07,9.24,9.24,0,0,0-2.12,2.93,9.68,9.68,0,0,0-.86,3.49Z"/><path class="cls-8" d="M463.82,107.41h14.57v6.67h.2a12.63,12.63,0,0,1,2-2.83,15,15,0,0,1,3.14-2.53,17.7,17.7,0,0,1,4.15-1.82,17.33,17.33,0,0,1,5.06-.71,20.88,20.88,0,0,1,9.3,1.77,13.52,13.52,0,0,1,5.52,4.91,20.06,20.06,0,0,1,2.68,7.38,56.47,56.47,0,0,1,.71,9.21v27.11H496V132.49c0-1.41-.05-2.88-.15-4.4a14,14,0,0,0-.91-4.19,6.52,6.52,0,0,0-6.83-4.35,9.38,9.38,0,0,0-4.76,1.06,7.26,7.26,0,0,0-2.78,2.83,11.52,11.52,0,0,0-1.26,4,34.69,34.69,0,0,0-.31,4.65v24.48H463.82Z"/><path class="cls-8" d="M555.37,119.55H542v16.38a32.14,32.14,0,0,0,.2,3.7,7.57,7.57,0,0,0,.91,2.88,4.6,4.6,0,0,0,2.18,1.87,9.56,9.56,0,0,0,3.89.66,26,26,0,0,0,3.19-.25,5.38,5.38,0,0,0,3-1.17v12.65a22.61,22.61,0,0,1-5.26,1.21,46.76,46.76,0,0,1-5.36.31,29.16,29.16,0,0,1-7.08-.81A16.18,16.18,0,0,1,532,154.4a12.07,12.07,0,0,1-3.79-4.61,15.71,15.71,0,0,1-1.37-6.88V119.55h-9.71V107.41h9.71V92.84H542v14.57h13.35Z"/><path class="cls-8" d="M563.06,107.41h15.18v7.89h.2a18.61,18.61,0,0,1,5.77-6.83,14.53,14.53,0,0,1,8.39-2.28c.88,0,1.75,0,2.63.1a13.38,13.38,0,0,1,2.43.41v13.86a22.65,22.65,0,0,0-3.19-.76,20.43,20.43,0,0,0-3.29-.25,16.06,16.06,0,0,0-6.87,1.21,9.13,9.13,0,0,0-3.9,3.39,12.91,12.91,0,0,0-1.77,5.21,50.73,50.73,0,0,0-.4,6.68v20.53H563.06Z"/><path class="cls-8" d="M603.22,91.93a8.81,8.81,0,1,1,2.58,6.22A8.47,8.47,0,0,1,603.22,91.93Zm1.22,15.48h15.17v49.16H604.44Z"/><path class="cls-8" d="M643.79,130.27,627.4,107.41h17.91l8.7,13.35,8.39-13.35h16.9l-16,22.86,18.92,26.3h-17.9L653.6,140.18l-11.53,16.39h-17.7Z"/></g></g></svg>